<svg xmlns="http://www.w3.org/2000/svg" width="716.156" height="533.622" viewBox="0 0 716.156 533.622"><defs><style>.a{fill:#ebebeb;}.b{fill:#f5f5f5;}.c{fill:#e6e6e6;}.d,.n{fill:#fff;}.e{fill:#e0e0e0;}.f{fill:#f0f0f0;}.g{fill:#fafafa;}.h{fill:#263238;}.i{fill:#ffb573;}.j{fill:#ff7c48;}.k{opacity:0.2;}.l{fill:#ed893e;}.m{fill:#ff8b7b;}.n{opacity:0.7;}.o{fill:#ff5652;}.p{fill:#7f3e3b;}.q{fill:#630f0f;}</style></defs><g transform="translate(0 -55)"><g transform="translate(0 55)"><rect class="a" width="716.156" height="0.358" transform="translate(0 468.939)"/><rect class="a" width="105.69" height="0.358" transform="translate(477.432 478.693)"/><rect class="a" width="12.447" height="0.358" transform="translate(148.416 481.099)"/><rect class="a" width="27.486" height="0.358" transform="translate(584.555 491.985)"/><rect class="a" width="69.711" height="0.358" transform="translate(286.462 487.143)"/><rect class="a" width="34.92" height="0.358" transform="translate(238.795 487.143)"/><rect class="a" width="47.481" height="0.358" transform="translate(75.139 481.099)"/><path class="a" d="M322.939,460.058H46.374a8.179,8.179,0,0,1-8.164-8.178V63.107A8.178,8.178,0,0,1,46.374,55H322.939a8.178,8.178,0,0,1,8.179,8.178v388.7A8.179,8.179,0,0,1,322.939,460.058ZM46.374,55.286a7.82,7.82,0,0,0-7.806,7.82V451.879a7.82,7.82,0,0,0,7.806,7.82H322.939a7.835,7.835,0,0,0,7.82-7.82V63.107a7.835,7.835,0,0,0-7.82-7.82Z" transform="translate(16.519 -55)"/><path class="a" d="M539.258,460.058H262.678a8.193,8.193,0,0,1-8.178-8.178V63.107A8.193,8.193,0,0,1,262.678,55H539.258a8.179,8.179,0,0,1,8.15,8.107V451.879A8.179,8.179,0,0,1,539.258,460.058ZM262.678,55.286a7.835,7.835,0,0,0-7.82,7.82V451.879a7.835,7.835,0,0,0,7.82,7.82H539.258a7.835,7.835,0,0,0,7.82-7.82V63.107a7.835,7.835,0,0,0-7.82-7.82Z" transform="translate(110.023 -55)"/><rect class="a" width="6.145" height="77.044" transform="translate(66.087 391.88)"/><path class="b" d="M71.249,340.895c0,22.5-17.646,40.749-17.646,40.749S36,363.4,36,340.895,53.646,300.16,53.646,300.16,71.249,318.393,71.249,340.895Z" transform="translate(15.563 50.985)"/><rect class="b" width="7.863" height="98.643" transform="translate(90.193 370.295)"/><path class="c" d="M95.118,329.275c0,28.8-22.6,52.15-22.6,52.15S50,358.079,50,329.275,72.588,277.11,72.588,277.11,95.118,300.457,95.118,329.275Z" transform="translate(21.616 41.021)"/><path class="a" d="M111.56,97.38V505.589h86.855V322.525h0A139.092,139.092,0,0,1,337.507,183.433V97.38Z" transform="translate(48.229 -36.679)"/><path class="b" d="M133.36,97.38V322.525a139.1,139.1,0,1,1,278.2,0L411.558,97.38Z" transform="translate(57.653 -36.679)"/><rect class="b" width="86.841" height="408.237" transform="translate(104.172 60.701)"/><path class="a" d="M111.03,296h1.432a27.944,27.944,0,0,1,27.83,28.016v95.736H83V324.016A27.944,27.944,0,0,1,111.03,296Z" transform="translate(35.882 49.187)"/><rect class="d" width="65.528" height="61.933" transform="translate(114.828 153.157)"/><rect class="e" width="147.6" height="9.955" transform="translate(101.622 279.401)"/><rect class="b" width="86.841" height="408.237" transform="translate(469.197 60.701)"/><path class="a" d="M365.846,296h1.432a27.945,27.945,0,0,1,27.945,27.944v95.807H337.93V324.016A27.944,27.944,0,0,1,365.846,296Z" transform="translate(146.091 49.187)"/><rect class="a" width="55.674" height="408.237" transform="translate(611.711 468.939) rotate(180)"/><rect class="d" width="65.528" height="61.933" transform="translate(479.853 153.157)"/><rect class="e" width="147.6" height="9.955" transform="translate(466.661 279.401)"/><rect class="e" width="512.638" height="9.955" transform="translate(101.622 113.826)"/><rect class="e" width="512.638" height="9.955" transform="translate(101.622 55.717)"/><path class="a" d="M101.6,120.539A9.554,9.554,0,1,1,92.044,111,9.554,9.554,0,0,1,101.6,120.539Z" transform="translate(35.661 -30.791)"/><path class="a" d="M148.7,120.544a9.554,9.554,0,1,1-9.553-9.554A9.554,9.554,0,0,1,148.7,120.544Z" transform="translate(56.023 -30.795)"/><path class="a" d="M195.767,120.544a9.554,9.554,0,1,1-9.554-9.554A9.554,9.554,0,0,1,195.767,120.544Z" transform="translate(76.372 -30.795)"/><path class="a" d="M242.907,120.544a9.554,9.554,0,1,1-9.554-9.554A9.554,9.554,0,0,1,242.907,120.544Z" transform="translate(96.751 -30.795)"/><path class="a" d="M290.007,120.544a9.554,9.554,0,1,1-9.554-9.554,9.553,9.553,0,0,1,9.554,9.554Z" transform="translate(117.113 -30.795)"/><path class="a" d="M337.117,120.544a9.554,9.554,0,1,1-9.554-9.554A9.553,9.553,0,0,1,337.117,120.544Z" transform="translate(137.479 -30.795)"/><path class="a" d="M384.217,120.544a9.553,9.553,0,1,1-9.553-9.554,9.553,9.553,0,0,1,9.553,9.554Z" transform="translate(157.841 -30.795)"/><rect class="c" width="4.082" height="51.134" transform="translate(295.486 417.805)"/><path class="b" d="M222.973,354.862c0,14.925-11.716,27.042-11.716,27.042s-11.716-12.117-11.716-27.042,11.716-27.042,11.716-27.042S222.973,339.937,222.973,354.862Z" transform="translate(86.263 62.943)"/><rect class="a" width="5.228" height="65.457" transform="translate(329.804 403.468)"/><path class="f" d="M251.6,347.135c0,19.121-14.982,34.619-14.982,34.619s-15-15.555-15-34.619,15-34.6,15-34.6S251.6,328.028,251.6,347.135Z" transform="translate(95.809 56.333)"/><rect class="a" width="3.438" height="43.098" transform="translate(421.1 468.939) rotate(180)"/><path class="f" d="M285.9,359.178c0,12.59,9.869,22.8,9.869,22.8s9.883-10.212,9.883-22.8-9.883-22.788-9.883-22.788S285.9,346.6,285.9,359.178Z" transform="translate(123.598 66.648)"/><rect class="c" width="4.397" height="55.187" transform="translate(392.152 468.939) rotate(180)"/><path class="b" d="M263.43,352.676c0,16.113,12.633,29.176,12.633,29.176s12.647-13.063,12.647-29.176S276.063,323.5,276.063,323.5,263.43,336.563,263.43,352.676Z" transform="translate(113.884 61.076)"/><rect class="a" width="4.583" height="57.436" transform="translate(642.22 468.939) rotate(180)"/><path class="f" d="M437.6,351.455c0,16.772,13.149,30.379,13.149,30.379s13.206-13.607,13.206-30.379-13.163-30.365-13.163-30.365S437.6,334.683,437.6,351.455Z" transform="translate(189.179 60.034)"/><rect class="e" width="5.872" height="73.535" transform="translate(603.662 468.939) rotate(180)"/><path class="g" d="M407.65,342.783c0,21.485,16.844,38.887,16.844,38.887s16.844-17.4,16.844-38.887-16.844-38.873-16.844-38.873S407.65,321.313,407.65,342.783Z" transform="translate(176.232 52.607)"/></g><g transform="translate(80.367 556.194)"><ellipse class="b" cx="277.711" cy="16.214" rx="277.711" ry="16.214" transform="translate(0 0)"/></g><g transform="translate(56.498 143.277)"><path class="h" d="M110.322,124.32c-7.878,10.026-19.236,35.378-7.348,43.986s41.537,6.245,49.973,0,3.323-37.741-12.49-47.066S108.245,118.72,110.322,124.32Z" transform="translate(-14.207 -116.632)"/><path class="i" d="M145.28,217.32s-.559,70.04-4.956,127.576c-9.482,56.949-4.669,135.124-4.669,135.124h-9.081S104.3,376.278,114.328,342.905c-5.987-42.8-4.125-124.425-4.125-124.425Z" transform="translate(-8.974 -73.104)"/><path class="i" d="M145.812,174.362c.4.53,1,1.289,1.533,1.934l1.676,2.02c1.146,1.332,2.335,2.635,3.552,3.91a77.17,77.17,0,0,0,7.649,7.076,51.162,51.162,0,0,0,8.322,5.443,27.085,27.085,0,0,0,8.68,2.865l.745.1a1.518,1.518,0,0,0-1,.172c-.129.1.086,0,.387-.215a12.087,12.087,0,0,0,2.22-2.793,56.9,56.9,0,0,0,4.068-8.594c1.217-3.08,2.306-6.288,3.352-9.539s2.034-6.56,2.979-9.8v-.072a3.309,3.309,0,0,1,6.488,1.117c-.215,3.638-.659,7.162-1.174,10.7a100.707,100.707,0,0,1-2.148,10.642,57.068,57.068,0,0,1-3.81,10.8,23.448,23.448,0,0,1-3.81,5.729,12.262,12.262,0,0,1-3.839,2.865,10.155,10.155,0,0,1-6.13.759l.759.115a37.24,37.24,0,0,1-13.149-3.28,54.43,54.43,0,0,1-10.971-6.546,80.363,80.363,0,0,1-9.253-8.164c-1.432-1.432-2.779-2.965-4.111-4.526q-.988-1.16-1.934-2.363c-.659-.845-1.217-1.576-1.934-2.592a6.646,6.646,0,0,1,10.742-7.82Z" transform="translate(1.337 -95.961)"/><path class="i" d="M186.308,163l-3.108-4.583a3.122,3.122,0,0,0-4.583-.645h0a12.776,12.776,0,0,0-4.3,6.99l-1.919,8.594,2.105,5.729c5.385-.415,8.766-8.035,8.766-8.035l3.022-4.6a3.094,3.094,0,0,0,.014-3.452Z" transform="translate(18.033 -99.162)"/><path class="h" d="M151.458,173.16a38.809,38.809,0,0,0,3.882,4.082s-3.48,14.567-11.817,19.164A5.729,5.729,0,0,1,140,192.983Z" transform="translate(4.026 -92.195)"/><path class="j" d="M136.385,165.363c12.117,1.361,15.942,7.692,21.069,11.774.344,8.594-12.389,21-12.389,21S119.469,163.444,136.385,165.363Z" transform="translate(-0.036 -95.599)"/><path class="j" d="M163.2,177.082c1.432,19.551-10.442,34.375-11.458,54.986l-49.343-1.2c1.432-20.052.816-18.076-6.231-56.906a7.978,7.978,0,0,1,6.918-9.339c3.667-.415,8.207-.816,12.977-.9a166.873,166.873,0,0,1,23.963.673c5.142.616,10.628,1.6,14.824,2.435C159.749,167.757,162.828,172.069,163.2,177.082Z" transform="translate(-14.978 -96.346)"/><path class="d" d="M134.02,164.313,110,163.64s.688,9.253,22.516,19.58C142.6,171.417,134.02,164.313,134.02,164.313Z" transform="translate(-8.944 -96.311)"/><path class="h" d="M125.89,174.616c3.309.845,8.136,6.66,9.554,12.461,9.912-14.839-8.293-22.917-8.293-22.917Z" transform="translate(-2.074 -96.086)"/><path class="h" d="M127.171,175.644c-3.251,1.06-9.41,7.033-10.442,12.891-10.871-14.151-6.417-24.965-6.417-24.965Z" transform="translate(-9.199 -96.341)"/><path class="i" d="M113.177,144.85c1.3,7.749,2.406,21.914-3.137,26.913,0,0,9.768,10.585,20.9,13.378a12.576,12.576,0,0,0,3.065-12.7c-8.594-2.292-8.135-8.665-6.474-14.61Z" transform="translate(-8.926 -104.434)"/><path class="k" d="M116.433,148.55l8.494,7.663a24.734,24.734,0,0,0-.859,4.3c-3.266-.573-7.677-4.3-7.935-7.749a11.459,11.459,0,0,1,.3-4.211Z" transform="translate(-6.325 -102.834)"/><path class="i" d="M106.959,141.294c2.678,12.619,3.538,18.018,10.943,23.59,11.129,8.408,26.039,2.363,27.214-10.8,1.031-11.845-3.509-30.494-16.715-33.717a17.6,17.6,0,0,0-21.442,20.926Z" transform="translate(-10.443 -115.244)"/><path class="h" d="M120.167,136.235c.158,1.031.831,1.79,1.518,1.69s1.089-1.017.945-2.063-.831-1.79-1.432-1.69A1.8,1.8,0,0,0,120.167,136.235Z" transform="translate(-4.558 -109.054)"/><path class="h" d="M129.45,134.881c.143,1.046.831,1.8,1.5,1.7s1.1-1.031.945-2.063-.831-1.79-1.5-1.69S129.292,133.85,129.45,134.881Z" transform="translate(-0.549 -109.633)"/><path class="h" d="M129.9,133.229l2.378-1.089S131.289,134.274,129.9,133.229Z" transform="translate(-0.341 -109.928)"/><path class="l" d="M126.37,136a28.36,28.36,0,0,0,4.669,6.073,4.483,4.483,0,0,1-3.581,1.232Z" transform="translate(-1.867 -108.26)"/><path class="h" d="M126.683,144.993a10.73,10.73,0,0,0,1.762-.1.315.315,0,0,0,.258-.358.286.286,0,0,0-.344-.258,8.336,8.336,0,0,1-7.162-2.22.3.3,0,0,0-.43,0,.315.315,0,0,0,0,.444,8.594,8.594,0,0,0,5.915,2.492Z" transform="translate(-4.328 -105.68)"/><path class="i" d="M105.577,141.581a9.467,9.467,0,0,0,4.956,5.228c3.036,1.318,5-1.289,4.54-4.383-.415-2.865-2.492-6.832-5.729-6.846a4.3,4.3,0,0,0-3.767,6Z" transform="translate(-11.009 -108.441)"/><path class="h" d="M116.866,133.213a.6.6,0,0,0,.444-.215,4.87,4.87,0,0,1,4.039-1.848.616.616,0,0,0,.688-.544.6.6,0,0,0-.544-.673,6.087,6.087,0,0,0-5.128,2.277.6.6,0,0,0,.072.859.559.559,0,0,0,.43.143Z" transform="translate(-6.256 -110.887)"/><path class="h" d="M132.856,130.372a.573.573,0,0,0,.344-.286.616.616,0,0,0-.258-.831,6.116,6.116,0,0,0-5.615-.186.622.622,0,1,0,.6,1.089,4.856,4.856,0,0,1,4.44.186A.645.645,0,0,0,132.856,130.372Z" transform="translate(-1.592 -111.512)"/><path class="h" d="M120.62,134.569l2.392-1.089S122.024,135.657,120.62,134.569Z" transform="translate(-4.352 -109.349)"/><path class="i" d="M135.13,217.78s-6.689,70.183-16.085,127.948c-14.438,57.135-16.429,134.093-16.429,134.093H93.536s-13.177-102.625-.2-136.07c-2.22-42.969,6.775-124.783,6.775-124.783Z" transform="translate(-18.619 -72.905)"/><path class="h" d="M121.337,422.5c-1.59-1.776-7.978-4.111-7.978-4.111s-5.729-3.667-9.224-19.007a1.017,1.017,0,0,0-.73-.759l-11.029-2.693a1.218,1.218,0,0,0-1.432.888,19.022,19.022,0,0,0-.559,3.523c-.129,1.432-.344,3.7-.444,5.142-.372,5.343-.831,17.36-.831,17.36h1.275A93.9,93.9,0,0,1,92,411.941c.931-3.523,3.051.645,4.1,4.626s6.274,8.221,14.395,8.422C120,425.219,123,424.345,121.337,422.5Z" transform="translate(-17.975 4.099)"/><path class="h" d="M156.209,211.745c10.47,33.058.587,84.821-4.383,148.187-22.917,3.438-44.946,3.237-65.886-1.934,15.154-72.733-7.162-126.688,20.983-147.528Z" transform="translate(-19.345 -76.065)"/><path class="d" d="M87.146,307.86c-.229,1.26-.458,2.55-.716,3.839,20.883,4.984,42.783,5.228,65.442,1.934l.344-4.111C129.686,312.844,107.9,312.687,87.146,307.86Z" transform="translate(-19.133 -33.963)"/><path class="k" d="M117.62,281.479l1.934-31.941,11.014-15.168Z" transform="translate(-5.649 -65.733)"/><path class="i" d="M127.387,177.745c-1.26,1.518-2.378,2.779-3.624,4.082s-2.449,2.564-3.71,3.8c-2.507,2.507-5.185,4.841-7.949,7.162a80.381,80.381,0,0,1-18.448,11.673,50.447,50.447,0,0,1-5.4,2.005l-1.432.4c-.544.129-1.146.286-1.647.372a27.5,27.5,0,0,1-3.051.4,69.04,69.04,0,0,1-10.929-.143A132.725,132.725,0,0,1,50.773,204a3.309,3.309,0,0,1,.745-6.531H51.6c6.646-.086,13.378-.143,19.852-.473a75.43,75.43,0,0,0,9.267-.974,19.137,19.137,0,0,0,1.948-.444c.315-.086.53-.186.8-.258l1-.372a37.635,37.635,0,0,0,4-1.79,58.948,58.948,0,0,0,7.72-4.8c2.549-1.79,5.042-3.738,7.448-5.8s4.727-4.3,7.033-6.531c1.146-1.117,2.263-2.263,3.366-3.423s2.234-2.378,3.165-3.423l.086-.115a6.646,6.646,0,0,1,10.026,8.594Z" transform="translate(-35.655 -94.732)"/><path class="h" d="M92.713,171.35a39.92,39.92,0,0,1-3.523,4.4S93.9,189.97,102.6,193.837a5.729,5.729,0,0,0,3.108-3.781Z" transform="translate(-17.94 -92.977)"/><path class="j" d="M106.111,164.227c-9.353.559-12.4,5.872-15.641,11.587,2.865,8.15,14.767,21.241,14.767,21.241S123.1,163.224,106.111,164.227Z" transform="translate(-17.387 -96.066)"/><path class="i" d="M56.742,192.487l-10.155-9.7-.816,13.192s7.047,4.469,11.759,1.819Z" transform="translate(-36.711 -88.032)"/><path class="i" d="M40.813,184.51l-1.3,6.087a2.979,2.979,0,0,0,2.163,3.495l6.832,1.977.816-13.192-6-.286A2.449,2.449,0,0,0,40.813,184.51Z" transform="translate(-39.445 -88.119)"/><path class="h" d="M152.552,422.5c-1.733-1.776-8.336-4.111-8.336-4.111s-5.987-3.667-10.886-19.007a1.131,1.131,0,0,0-.788-.759l-11.272-2.693a1.117,1.117,0,0,0-1.432.888,18.851,18.851,0,0,0-.215,3.523v5.142c.1,5.343.688,17.36.688,17.36H121.6a90.7,90.7,0,0,1,.673-10.9c.616-3.523,3.108.645,4.5,4.626S133.76,424.8,141.9,425C151.463,425.226,154.371,424.352,152.552,422.5Z" transform="translate(-4.788 4.092)"/><path class="j" d="M190.877,143.3a20.725,20.725,0,0,0-4.3-1.332l.272-1.432a21.786,21.786,0,0,1,4.612,1.432Z" transform="translate(24.163 -106.297)"/><path class="j" d="M195,147.129V145.7a16.658,16.658,0,0,0,15.956-10.327l1.332.53A18.047,18.047,0,0,1,195,147.129Z" transform="translate(27.803 -108.532)"/><path class="j" d="M199.663,132.624a23.719,23.719,0,0,0-17.188-4.569l-2.206,14.953c3.079-1.676,10.227-1.146,15.44,1.2s14.968,1.5,18.319-6.918C207.412,141.089,204.5,136.277,199.663,132.624Z" transform="translate(21.435 -111.774)"/><path class="h" d="M175.366,194.412h-.115a.788.788,0,0,1-.659-.9l9.883-67.1a.788.788,0,0,1,.888-.673.816.816,0,0,1,.673.9l-9.9,67.1A.773.773,0,0,1,175.366,194.412Z" transform="translate(18.976 -112.702)"/><path class="i" d="M173.37,169.617c.7-5.042,4.913-8.05,6.846-11.63.315-.6,1.332-.372,1.6.243.516,1.217-.931,4.1-1.561,4.827-.888,1.031-1.046,7.849-5.027,9.811a3.609,3.609,0,0,1-1.862-3.251Z" transform="translate(18.452 -98.907)"/><path class="d" d="M100.219,208.573a17.03,17.03,0,0,0-.716,2.865.773.773,0,0,0,.659.888c5.271.673,36.195,4.4,50.2,2.034a.773.773,0,0,0,.63-.745c0-.874.115-2.234.172-3.094a.759.759,0,0,0-.745-.816c-4.87,0-30.465-.3-49.443-1.6A.774.774,0,0,0,100.219,208.573Z" transform="translate(-13.486 -77.09)"/><path class="e" d="M120.124,208.468a41.207,41.207,0,0,1,10.642.544c.773.458.43,6.145-.243,6.5-1.346.7-9.038.315-10.427-.1S119.15,208.769,120.124,208.468Z" transform="translate(-4.96 -76.986)"/><path class="h" d="M112.155,120.71c10.169.874,4.984,22.917-7.777,38C99.98,148.826,100.009,131.152,112.155,120.71Z" transform="translate(-12.53 -114.87)"/><path class="h" d="M109.41,124.4c9.7,6.56,33.287,10.757,30.365,4.555S113.435,109.117,109.41,124.4Z" transform="translate(-9.199 -116.296)"/></g><g transform="translate(297.42 87.734)"><path class="m" d="M262.506,417.767l-12.6-.2-.7-29.276,12.6.2Z" transform="translate(-189.688 56.351)"/><path class="h" d="M256.613,406.07l13.764.215a1.017,1.017,0,0,1,1.017.874l1.776,11.258a1.962,1.962,0,0,1-1.962,2.22c-4.97-.172-12.117-.573-18.362-.673-7.3-.115-6.589.186-15.14,0-5.185-.086-6.288-5.343-4.082-5.729,10.026-2.005,11.014-2.105,19.88-7.162a6,6,0,0,1,3.108-1Z" transform="translate(-196.887 64.037)"/><path class="k" d="M249.21,388.29l.344,15.1,12.619.2-.358-15.1Z" transform="translate(-189.684 56.351)"/><path class="j" d="M250.116,407.707a.258.258,0,0,0,.186-.244.3.3,0,0,0-.158-.3c-.587-.3-5.729-2.965-7.262-2.134a.974.974,0,0,0-.473.788h0a1.819,1.819,0,0,0,.616,1.432c1.432,1.246,5.027.8,7.047.43Zm-6.861-2.191c.945-.315,3.738.773,5.729,1.762-2.779.415-4.856.272-5.658-.43a1.174,1.174,0,0,1-.4-.974.344.344,0,0,1,.186-.315Z" transform="translate(-192.624 63.518)"/><path class="j" d="M249.21,408.573h.072a.258.258,0,0,0,.115-.258c0-.143-.473-3.552-2.12-4.9a2.306,2.306,0,0,0-1.676-.544h0c-.816.072-1.046.487-1.089.816-.186,1.432,2.936,4.211,4.483,4.913A.287.287,0,0,0,249.21,408.573Zm-3.839-5.085h.3a1.59,1.59,0,0,1,1.232.4,7.377,7.377,0,0,1,1.8,3.91c-1.59-.96-3.71-3.137-3.6-3.982,0-.115.014-.244.258-.33Zm.272-.358Z" transform="translate(-191.718 62.652)"/><path class="j" d="M274.261,337.6c15.4-64.454,29.993-92.384,24.206-124.353l-44.5.53s-17.546,87.643-13.807,125.442c3.867,39.288,9.553,130.756,9.553,130.756l20.31.286S281.852,381.489,274.261,337.6Z" transform="translate(-193.823 -19.321)"/><path class="k" d="M266.628,316.244c8.221-32.843,15.942-55.688,20.052-74.824C257.762,251.819,260.226,287.8,266.628,316.244Z" transform="translate(-183.928 -7.143)"/><path class="h" d="M244.5,389.34l1.7,8.708,22.344.387.9-8.221Z" transform="translate(-191.72 56.804)"/><path class="m" d="M313.451,417.767l-12.633-.2L296.65,388.29l12.633.2Z" transform="translate(-169.175 56.351)"/><path class="h" d="M303.853,406.075l13.764.215a.974.974,0,0,1,.974.874l1.2,11.258a2.077,2.077,0,0,1-2.077,2.22c-4.956-.172-6.517-.573-12.748-.673-7.3-.115-3.939.186-12.49,0-5.171-.086-6-5.314-3.781-5.729,7-1.432,8.852-4.3,12-7.162A4.3,4.3,0,0,1,303.853,406.075Z" transform="translate(-173.112 64.032)"/><path class="k" d="M296.66,388.29l2.134,15.1,12.647.2-2.148-15.1Z" transform="translate(-169.171 56.351)"/><path class="j" d="M302.674,408.225a.315.315,0,0,0,.272-.487c-.415-.487-4.3-4.712-5.973-4.454a.917.917,0,0,0-.745.559h0a1.675,1.675,0,0,0,0,1.561c.845,1.647,4.412,2.478,6.445,2.865Zm-5.543-4.3c1,0,3.194,1.991,4.727,3.6-2.764-.559-4.669-1.432-5.142-2.335a1.088,1.088,0,0,1,0-1.031.358.358,0,0,1,.3-.229Z" transform="translate(-169.441 62.827)"/><path class="j" d="M301.472,408.723h.086a.329.329,0,0,0,.215-.215c0-.143.945-3.437-.086-5.242a2.263,2.263,0,0,0-1.361-1.074h0c-.8-.215-1.175.086-1.346.387-.73,1.246,1.117,4.87,2.292,6.059A.287.287,0,0,0,301.472,408.723Zm-1.619-6a.986.986,0,0,1,.315,0h0a1.6,1.6,0,0,1,1,.788,7.033,7.033,0,0,1,.158,4.225c-1.117-1.432-2.263-4.168-1.833-4.913A.344.344,0,0,1,299.854,402.722ZM300.241,402.478Z" transform="translate(-168.24 62.329)"/><path class="j" d="M309.16,337.819c6.9-64.454,15.039-93.1,5.042-125.069L267.809,214s-1.26,87.643,7.448,125.442c9.052,39.288,30.193,130.756,30.193,130.756l20.353.286S322.538,381.705,309.16,337.819Z" transform="translate(-181.671 -19.537)"/><path class="h" d="M292,389.34l1.332,8.708,22.817.387,1.289-8.221Z" transform="translate(-171.185 56.804)"/><path class="m" d="M275.61,147.648c-1.619,4.9-3.438,9.482-5.271,14.18s-3.853,9.281-6.016,13.865-4.426,9.167-7.047,13.707c-1.3,2.277-2.65,4.569-4.225,6.832a55.058,55.058,0,0,1-5.529,6.961l.73-.917a16.588,16.588,0,0,1-3.366,3.423,11.859,11.859,0,0,1-2.865,1.647,11.6,11.6,0,0,1-3.91.773,11.931,11.931,0,0,1-6.632-1.79,15.083,15.083,0,0,1-3.38-2.865,23.647,23.647,0,0,1-3.509-5.142,47.363,47.363,0,0,1-2.148-4.77,72.192,72.192,0,0,1-2.865-9.281,76.651,76.651,0,0,1-1.676-9.339,4.8,4.8,0,0,1,8.995-2.865l.1.186c1.332,2.492,2.693,5.156,4.068,7.649a80.242,80.242,0,0,0,4.3,7.162,31.916,31.916,0,0,0,2.191,3.065,10.8,10.8,0,0,0,1.934,1.962c.215.143.358.129.115-.072a3.738,3.738,0,0,0-2.349-.659,4.912,4.912,0,0,0-1.733.315,3.067,3.067,0,0,0-.616.272,2.864,2.864,0,0,0-.387.215c-.415.272-.415.286-.358.129h0l.7-.874a40.109,40.109,0,0,0,3.251-4.784c1.074-1.876,2.148-3.867,3.165-5.915s2.005-4.154,2.965-6.288,1.934-4.3,2.865-6.488c1.848-4.369,3.638-8.809,5.4-13.278s3.466-9.009,5.128-13.363v-.115a9.567,9.567,0,1,1,18.02,6.432Z" transform="translate(-203.236 -53.222)"/><path class="m" d="M224.776,171.641l-13.636-3.91L220.966,156s11.458,3.395,9.654,10.527Z" transform="translate(-206.142 -44.071)"/><path class="m" d="M208.251,160.375l3.337-5.414a4.01,4.01,0,0,1,5.629-1.218l5.257,3.524-9.869,11.716-3.767-3.638A4.025,4.025,0,0,1,208.251,160.375Z" transform="translate(-207.651 -45.338)"/><path class="h" d="M253.622,131.656c-11.759,8.594-16.242,33.9-16.242,33.9l26.24,12.1s5.027-6.388,7.419-19.938C271.77,153.614,265.582,122.962,253.622,131.656Z" transform="translate(-194.798 -55.263)"/><path class="h" d="M258.038,129.791a148.816,148.816,0,0,1,42.353-2.206,18.062,18.062,0,0,1,16.257,13.865c4.182,17.818,11.33,53,8.866,109.1-6.46,2.707-26,4.3-41.609,4.526-1.7,0-6.188-3.581-6.188-3.581s-3.423,3.566-5.6,3.495c-10.384-.344-18.735-1.432-20.8-3.251-5.1-9.711-10.026-35.034-.8-58.882-1.074-13.693-5.113-28.861-6.617-43.528a18.033,18.033,0,0,1,14.137-19.537Z" transform="translate(-192.023 -56.621)"/><rect class="d" width="7.147" height="4.397" rx="1.25" transform="translate(80.664 147.39) rotate(-10.81)"/><rect class="j" width="34.375" height="21.184" rx="1.87" transform="translate(58.466 153.166) rotate(-10.81)"/><rect class="h" width="27.157" height="19.279" rx="1.87" transform="translate(59.663 153.913) rotate(-10.81)"/><rect class="d" width="3.968" height="2.449" rx="0.55" transform="translate(80.733 151.552) rotate(-10.81)"/><rect class="j" width="2.865" height="2.449" rx="0.55" transform="translate(76.916 152.309) rotate(-10.8)"/><path class="n" d="M260.217,185.963l-5.987,1.146,2.378,12.39,5.973-1.132c2.865-.544,4.655-3.767,4-7.162S263.082,185.419,260.217,185.963Z" transform="translate(-187.514 -31.151)"/><path class="d" d="M261.85,191.971c.659,3.423-1.132,6.632-4,7.162s-5.729-1.776-6.374-5.2,1.146-6.646,4-7.162S261.191,188.562,261.85,191.971Z" transform="translate(-188.76 -30.799)"/><path class="j" d="M260.1,191.819a4.168,4.168,0,1,1-4.956-4.053A4.569,4.569,0,0,1,260.1,191.819Z" transform="translate(-188.582 -30.347)"/><path class="d" d="M265.119,167.66c-3.939,0-6.846-3.065-8.379-8.866-2.865-10.986-.158-28.646,3.81-30.866a.394.394,0,0,1,.387.688c-3.352,1.919-6.4,18.792-3.438,29.978,1,3.781,3.137,8.279,7.62,8.279,7.534,0,13.621-11.931,15.884-17.059,4.225-9.582,6.3-20.239,4.3-22.387a.4.4,0,0,1,.587-.53c2.435,2.678-.2,14.166-4.211,23.232C279.4,155.4,273.125,167.66,265.119,167.66Z" transform="translate(-186.944 -56.69)"/><path class="h" d="M250.89,90.1c1.977-5.729,10.728-11.1,10.728-11.1s20.769.344,30.551,16.6c2.335,5.643-2.091,15.068-2.091,15.068Z" transform="translate(-188.958 -77.359)"/><ellipse class="j" cx="14.498" cy="35.424" rx="14.498" ry="35.424" transform="translate(40.563 27.041) rotate(-68.839)"/><path class="m" d="M274.848,111.42c1.26,9.382,3.18,20.282,9.811,25.6a19.866,19.866,0,0,1-17.818,12.791c-10.026.516-8.508-7.505-6.846-11.745,4.3-4.8,2.22-10.126,1.146-13.908Z" transform="translate(-185.544 -63.343)"/><path class="k" d="M271.3,115.156a12.313,12.313,0,0,0-.243-1.776l-10.685,9.926a22.818,22.818,0,0,1,1.432,8.021C267.131,127.775,271.986,120.857,271.3,115.156Z" transform="translate(-184.859 -62.496)"/><path class="m" d="M283.43,107.81c-1.576,12.418-1.876,19.766-8.594,25.7-10.112,8.923-25.137,2.063-27.3-10.6-1.948-11.459.96-29.792,13.492-33.846a17.188,17.188,0,0,1,22.4,18.749Z" transform="translate(-190.646 -73.384)"/><path class="k" d="M260.75,103.222a6.846,6.846,0,0,1,5.2-.4A13.707,13.707,0,0,1,260.75,103.222Z" transform="translate(-184.695 -67.205)"/><path class="k" d="M260.87,103.947a5.572,5.572,0,0,1,4.655.831,11.344,11.344,0,0,1-4.655-.831Z" transform="translate(-184.643 -66.656)"/><path class="e" d="M280.765,119.995a9.066,9.066,0,0,1-7.162-2.75s5.958-4.454,4.913-9.238-3.137-7.806-1.3-10.026c-8.981,1.432-27.658,1.661-32.112-2.865,2.693.587,5.185-1.518,7.018-.859.716-2.163,6.99-9.138,21.485-5.128,9.7,2.678,13.048,12.074,12.318,15.483C287.6,105.972,291.536,115.927,280.765,119.995Z" transform="translate(-191.461 -73.508)"/><path class="e" d="M243.69,115.036s3.566,8.236,10.356,4.3c6.2,2.764,12.046-1.031,14.509-5.9-3.839,1.633-7.3-3.667-12.8-3.266a2.693,2.693,0,0,0-1.647.845,4.011,4.011,0,0,0-1.848-.544C248.345,110.725,248.99,115.079,243.69,115.036Z" transform="translate(-192.07 -63.895)"/><path class="m" d="M278.555,113.492a11.759,11.759,0,0,1-7.419,5.185c-4.082.859-5.887-2.865-4.555-6.574,1.189-3.337,4.755-7.806,8.766-7S280.589,110.226,278.555,113.492Z" transform="translate(-182.362 -66.117)"/><path class="h" d="M259.278,104.21c-.072,1.017-.659,1.8-1.318,1.762s-1.16-.917-1.089-1.934.659-1.8,1.318-1.747S259.35,103.208,259.278,104.21Z" transform="translate(-186.375 -67.291)"/><path class="h" d="M250.418,103.834c-.072,1.017-.659,1.8-1.318,1.747s-1.16-.917-1.089-1.919.659-1.8,1.318-1.762S250.49,102.817,250.418,103.834Z" transform="translate(-190.205 -67.46)"/><path class="h" d="M253.137,103.573a.573.573,0,0,1,.559.559v4.684a.573.573,0,0,1-.559.559h-7.491a.559.559,0,0,1-.559-.559v-4.669a.559.559,0,0,1,.559-.559h7.491m0-.788h-7.491a1.432,1.432,0,0,0-1.346,1.346v4.669a1.432,1.432,0,0,0,1.346,1.346h7.491a1.346,1.346,0,0,0,1.346-1.346v-4.669a1.346,1.346,0,0,0-1.346-1.346Z" transform="translate(-191.807 -67.07)"/><path class="h" d="M264.438,103.573a.559.559,0,0,1,.573.559v4.684a.559.559,0,0,1-.573.559h-9.711a.544.544,0,0,1-.559-.559v-4.669a.544.544,0,0,1,.559-.559h9.711m0-.788h-9.711a1.346,1.346,0,0,0-1.346,1.346v4.669a1.346,1.346,0,0,0,1.346,1.346h9.711a1.346,1.346,0,0,0,1.289-1.346v-4.669a1.346,1.346,0,0,0-1.346-1.346Z" transform="translate(-187.881 -67.07)"/><path class="h" d="M251.474,104.849l-.544-.559a3.366,3.366,0,0,1,4.082-.2l-.387.688A2.635,2.635,0,0,0,251.474,104.849Z" transform="translate(-188.94 -66.77)"/><path class="o" d="M254.045,104.15a36.05,36.05,0,0,1-5.915,7.978c1.576,1.9,4.7,1.561,4.7,1.561Z" transform="translate(-190.151 -66.486)"/><path class="h" d="M261.621,100.066a.687.687,0,0,0,.286-.1.616.616,0,0,0,.172-.831,5.987,5.987,0,0,0-4.7-2.865.6.6,0,1,0,0,1.2h0a4.784,4.784,0,0,1,3.7,2.277A.587.587,0,0,0,261.621,100.066Z" transform="translate(-186.411 -69.893)"/><path class="h" d="M247.154,100.494a.573.573,0,0,0,.53-.172,4.712,4.712,0,0,1,4.039-1.432.587.587,0,0,0,.687-.473.6.6,0,0,0-.473-.7,5.887,5.887,0,0,0-5.113,1.848.587.587,0,0,0,0,.845A.558.558,0,0,0,247.154,100.494Z" transform="translate(-190.793 -69.291)"/><path class="m" d="M303.219,136.688c1.547,2.105,2.865,3.968,4.154,6s2.564,4.01,3.8,6.044c2.492,4.053,4.77,8.236,6.918,12.533a112.3,112.3,0,0,1,10.026,27.858c.258,1.26.444,2.592.63,3.9l.215,2.02c0,.229.086.945.115,1.432s0,1.16,0,1.733a16.571,16.571,0,0,1-1.962,6.689,18.478,18.478,0,0,1-3.781,4.741,28.491,28.491,0,0,1-8.021,4.97,51.683,51.683,0,0,1-7.606,2.421,99.832,99.832,0,0,1-28.933,1.962,4.755,4.755,0,0,1-.645-9.41h.272c2.063-.415,4.3-.845,6.445-1.3s4.3-1.017,6.4-1.533a103.229,103.229,0,0,0,12.1-3.781,34.368,34.368,0,0,0,5.142-2.464,11.588,11.588,0,0,0,3.309-2.564c.272-.358.387-.63.329-.687s-.129.072-.172.143h0s0,.1-.072-.229l-.258-1.432c-.215-.931-.387-1.862-.673-2.865a111.4,111.4,0,0,0-9.725-22.917c-2.02-3.81-4.3-7.548-6.488-11.287-1.132-1.862-2.277-3.71-3.466-5.529s-2.406-3.724-3.509-5.328l-.1-.143a9.568,9.568,0,0,1,15.612-11.043Z" transform="translate(-178.838 -54.078)"/><path class="h" d="M289.356,128.11c14.252,2.865,26.1,27.486,26.1,27.486l-16.113,24.12a67.405,67.405,0,0,1-16.973-20.167C280.419,155.882,274.89,125.173,289.356,128.11Z" transform="translate(-176.506 -56.214)"/><path class="m" d="M284.843,186.268l-12.733-.888,3.251,14.968s11.645-.587,12.318-6.832Z" transform="translate(-179.784 -31.37)"/><path class="m" d="M265.189,193.99l2.034,5.056a4.426,4.426,0,0,0,5.07,2.664l6.231-1.432-3.251-14.968-7.534,2.865a4.426,4.426,0,0,0-2.55,5.815Z" transform="translate(-182.918 -31.4)"/><path class="j" d="M278.947,126.05c.3,2.865-3.151,13.091-15.2,17.446,4.641,0,6.675,5.944,6.675,5.944s15.985-8.522,14.094-18.806A5.729,5.729,0,0,0,278.947,126.05Z" transform="translate(-183.398 -57.019)"/><path class="j" d="M263.2,126.6c.286,2.865-2.979,8.737,3.738,16.658-4.655,0-7.448,4.669-7.448,4.669a19.881,19.881,0,0,1-1.318-19.007,9.181,9.181,0,0,1,5.028-2.32Z" transform="translate(-186.591 -56.781)"/><path class="d" d="M269.668,182.457H257.536a2.234,2.234,0,0,1-2.263-2.449l1.676-21.628a2.693,2.693,0,0,1,2.635-2.449h12.132a2.234,2.234,0,0,1,2.263,2.449L272.3,180.007A2.678,2.678,0,0,1,269.668,182.457Z" transform="translate(-187.067 -44.101)"/><path class="j" d="M263.707,159.075H261.43a.43.43,0,0,1-.43-.458l.315-4.068a.5.5,0,0,1,.5-.458h2.277a.415.415,0,0,1,.43.458l-.315,4.068A.516.516,0,0,1,263.707,159.075Z" transform="translate(-184.587 -44.897)"/></g><g transform="translate(459.323 114.233)"><path class="h" d="M400.467,159.15c13.893,14.738,26.784,20.253,25.925,38.515,6.445,10.284,3.738,38.672-7.448,44.531s-42.883,1.69-42.883,1.69Z" transform="translate(-296.748 -69.208)"/><path class="d" d="M403.019,230.947h12.117A2.234,2.234,0,0,0,417.4,228.5l-1.676-21.628a2.678,2.678,0,0,0-2.635-2.449H400.956a2.234,2.234,0,0,0-2.263,2.449l1.676,21.628a2.707,2.707,0,0,0,2.65,2.449Z" transform="translate(-286.967 -49.637)"/><path class="j" d="M415.244,231.417H403.127a3.065,3.065,0,0,1-3.008-2.793l-1.676-21.614a2.65,2.65,0,0,1,.688-2.02,2.592,2.592,0,0,1,1.934-.831H413.2a3.094,3.094,0,0,1,3.008,2.865l1.676,21.628a2.607,2.607,0,0,1-2.635,2.865Zm-14.18-26.526a1.876,1.876,0,0,0-1.891,2.063l1.676,21.628a2.32,2.32,0,0,0,2.277,2.105h12.117a1.876,1.876,0,0,0,1.9-2.063l-1.676-21.614a2.32,2.32,0,0,0-2.277-2.12Z" transform="translate(-287.075 -49.75)"/><path class="j" d="M404.373,207.554h2.292a.415.415,0,0,0,.415-.458l-.315-4.068a.5.5,0,0,0-.487-.458h-2.292a.415.415,0,0,0-.415.458l.315,4.068A.5.5,0,0,0,404.373,207.554Z" transform="translate(-284.855 -50.437)"/><path class="h" d="M381.126,295.1c-1.432,15.526-2.392,32.456-2.263,49.587,1.046,17.46.788,39.761,0,61.145H351.349c-.831-21.141-1.7-42.325-2.492-56.49-2.034-37.24-7.906-126.187-7.906-126.187l22.172.344,28.89.473a600.689,600.689,0,0,0-10.886,71.128Z" transform="translate(-311.926 -41.54)"/><path class="k" d="M371.5,248.374c-14.552,19.923-8.007,57.407-2.034,83.891a569.286,569.286,0,0,1,7.419-87.185Z" transform="translate(-302.526 -32.059)"/><path class="h" d="M417.5,341.692c-6.961-55.044-9.539-105.246-17.789-117.55l-43.284-.7s9.21,36.109,18.018,71.616c4.884,19.608,9.625,39.03,12.633,52.093,3.352,14.581,7.892,36.8,12.175,58.639h27.056C423.634,383.014,422.517,358.077,417.5,341.692Z" transform="translate(-305.234 -41.415)"/><path class="p" d="M369.82,424.182s2.55-35.321,3.71-73.492H349.41c1.246,36.624,4.684,73.22,4.684,73.22Z" transform="translate(-308.269 13.597)"/><path class="p" d="M399.358,420.243l16.83.272s-1.432-33.831-5.07-69.825H388C393.944,385.925,399.358,420.243,399.358,420.243Z" transform="translate(-291.586 13.597)"/><path class="j" d="M348.052,358.6,346.62,346.53l31.783-.63-1.69,11.817a48.841,48.841,0,0,1-28.661.888Z" transform="translate(-309.475 11.526)"/><path class="j" d="M387.234,358.6,385,346.53l30.666-.63-.917,11.817S403.276,362.93,387.234,358.6Z" transform="translate(-292.883 11.526)"/><path class="p" d="M367.652,160.819c-.444,4.1-1,8.121-1.6,12.175s-1.246,8.078-1.977,12.1-1.432,8.05-2.249,12.074-1.647,8.064-2.549,12.1l-.229,1.017a4.38,4.38,0,0,1-.186.616c-1.576,3.982-3.337,7.777-5.128,11.458s-3.724,7.376-5.729,11-4.01,7.162-6.145,10.671-4.3,6.947-6.7,10.356a5.729,5.729,0,0,1-10.227-4.884v-.086c1.1-3.839,2.349-7.691,3.552-11.458l3.71-11.458,3.667-11.287c1.2-3.738,2.32-7.462,3.38-11.1l-.415,1.647,1.332-12.017c.444-4.01.917-8.035,1.432-12.046s1-8.035,1.547-12.06,1.117-8.035,1.79-12h0a11.459,11.459,0,0,1,22.659,3.137Z" transform="translate(-318.963 -73.841)"/><path class="p" d="M327.491,217.75l-6.231,10.7,14.423,3.581s4.454-10.384-.673-13.65Z" transform="translate(-320.438 -43.875)"/><path class="p" d="M324.688,237.7l5.271.4a4.3,4.3,0,0,0,4.5-3.266l1.432-6.03-14.423-3.581L320.706,233a4.3,4.3,0,0,0,3.982,4.7Z" transform="translate(-320.686 -40.645)"/><path class="j" d="M400.07,146.949a214.161,214.161,0,0,0-47.266-1.576,14.91,14.91,0,0,0-13.636,14.065c-.788,16.515-1.332,49.458,2.693,97.569,6.675,7.591,36.567,10.556,65.5,1.06a818.627,818.627,0,0,1,12.576-82.788,23.5,23.5,0,0,0-19.866-28.331Z" transform="translate(-312.937 -75.44)"/><path class="d" d="M353.659,144.952a8.307,8.307,0,0,0-.7.888c-2.091,3.165-2.521,6.488-1.174,9.11,1.647,3.18,5.572,4.9,11.645,5.085h1.533a39.876,39.876,0,0,0,22.33-6.646,8.05,8.05,0,0,0,3.71-6.961,216.739,216.739,0,0,0-37.34-1.475Z" transform="translate(-307.577 -75.449)"/><path class="p" d="M387.133,124.93l-20.926,13.278c1.676,6.718,1.747,13.75-8.522,15.841a4.784,4.784,0,0,0-3.094,2.034c-2.521,3.8-2.865,9.109,8.021,9.468a37.026,37.026,0,0,0,22.115-6.145,4.942,4.942,0,0,0,1.833-6.331C382.664,145.484,385.013,132.478,387.133,124.93Z" transform="translate(-306.66 -84.002)"/><path class="k" d="M374.645,128.71l-12.375,7.863a25.779,25.779,0,0,1,.8,4.984c4.483.816,11.186-3.036,11.845-6.99A15.841,15.841,0,0,0,374.645,128.71Z" transform="translate(-302.709 -82.368)"/><path class="h" d="M361.827,103c-4.813,3.939-7.162,7.348-6.259,15.426s7.777,5.729,7.777,5.729Z" transform="translate(-305.689 -93.482)"/><path class="p" d="M390.741,123.133c-2.865,11.817-3.853,18.878-10.943,23.905-10.671,7.548-24.464-.616-25.237-13.048-.7-11.2,4.01-28.646,16.515-31.253a16.729,16.729,0,0,1,19.666,20.4Z" transform="translate(-306.071 -93.749)"/><path class="h" d="M395.6,132.083c.645,2.163-3.079,9.024-7.921,7.477-5.285-7.162-8.909-14.882-4.039-21-6.947-1.576-31.282-4.512-25.61-11.817,1.289-3.853,11.458-8.866,21.785-7.162S401.712,115.94,395.6,132.083Z" transform="translate(-304.911 -95.107)"/><path class="j" d="M395.449,133.33c-1.16-9.568-11.458-21.184-24.607-23.4-8.207-1.432-12.891-1.934-12.891-1.934s-2.034-3.638,2.707-5.729c.2-4.111,37.383-15.025,42.8,10.155,1.948,9.21-3.581,2.764-3.581,2.764S404.172,131.74,395.449,133.33Z" transform="translate(-304.764 -96.355)"/><path class="p" d="M385.985,128.357a11.459,11.459,0,0,1-7.677,4.3c-4.025.43-5.4-3.337-3.753-6.789,1.432-3.108,5.357-7.076,9.138-5.9S388.263,125.407,385.985,128.357Z" transform="translate(-297.692 -86.24)"/><path class="h" d="M367.7,116.6c-.172.974-.816,1.661-1.432,1.547s-1-1-.845-1.962.831-1.676,1.432-1.561S367.884,115.684,367.7,116.6Z" transform="translate(-301.362 -88.462)"/><path class="h" d="M359.549,115.71c-.172.974-.816,1.661-1.432,1.547s-1.017-1-.845-1.962.831-1.676,1.432-1.561S359.764,114.736,359.549,115.71Z" transform="translate(-304.887 -88.847)"/><path class="q" d="M363.3,116.27a34.818,34.818,0,0,1-6.087,7.462,5.729,5.729,0,0,0,4.5,1.719Z" transform="translate(-304.897 -87.746)"/><path class="h" d="M363.345,125.807a7.992,7.992,0,0,0,6.044-2.177.3.3,0,0,0,0-.415.286.286,0,0,0-.4,0,7.735,7.735,0,0,1-6.8,1.862.3.3,0,0,0-.344.243.287.287,0,0,0,.244.329A8.263,8.263,0,0,0,363.345,125.807Z" transform="translate(-302.896 -84.779)"/><path class="h" d="M370.78,116.584a.716.716,0,0,0,.3,0,.587.587,0,0,0,.372-.73,5.729,5.729,0,0,0-3.652-3.867.587.587,0,1,0-.315,1.117h0a4.655,4.655,0,0,1,2.865,3.094.6.6,0,0,0,.43.387Z" transform="translate(-300.677 -89.62)"/><path class="h" d="M356.154,112.429a.573.573,0,0,0,.516-.172,4.526,4.526,0,0,1,3.882-1.561.58.58,0,0,0,.186-1.146,5.729,5.729,0,0,0-4.927,1.919.587.587,0,0,0,0,.816.53.53,0,0,0,.344.143Z" transform="translate(-305.573 -90.665)"/><path class="p" d="M407.049,156.819l.816,1.432.716,1.318c.473.859.9,1.733,1.332,2.592.859,1.733,1.633,3.48,2.392,5.257a107.263,107.263,0,0,1,3.924,10.914,77.545,77.545,0,0,1,3.523,24.02c0,1.1-.086,2.105-.172,3.079,0,.43-.086,1.175-.172,1.919l-.172,1.275-.286,1.332a16.9,16.9,0,0,1-2.664,5.844,15.569,15.569,0,0,1-5.257,4.6,16.857,16.857,0,0,1-5.471,1.833A19.753,19.753,0,0,1,401,222.4a32.385,32.385,0,0,1-7.047-1.289,56.247,56.247,0,0,1-11.072-4.827,71.229,71.229,0,0,1-9.525-6.374,5.729,5.729,0,0,1,5.07-10.026l.358.1c6.316,1.7,13.12,3.609,18.62,3.953a13.192,13.192,0,0,0,3.6-.158c.831-.143,1.089-.559.2-.272a3.681,3.681,0,0,0-1.432,1.06,5.346,5.346,0,0,0-.659.988h0a4.136,4.136,0,0,1,0-.73,11.875,11.875,0,0,0-.129-2.191,72.392,72.392,0,0,0-4.182-17.36c-1.031-2.951-2.234-5.9-3.495-8.823-.63-1.432-1.3-2.865-1.977-4.3l-1.017-2.134-.931-1.919-.3-.6a11.458,11.458,0,0,1,20.2-10.685Z" transform="translate(-298.861 -72.521)"/><path class="h" d="M403.062,154.612a1.919,1.919,0,0,0,.487-3.28c-4.8-3.738-12.275-5.915-15.884-5.8-7.878.258-17.789,17.345-22.272,58.51-4.068,37.326,26.5,36.782,32.227,36.352a1.132,1.132,0,0,0,1.031-.988l.129-1.2a1.1,1.1,0,0,0-1.074-1.246c-4.6-.1-25.481-2.177-27.028-16.156C375.017,202.924,379.314,164.91,403.062,154.612Z" transform="translate(-301.52 -75.097)"/><path class="p" d="M383.47,189.365l-9.611-7.835-5.729,13.679s9.554,6.044,13.578,1.432Z" transform="translate(-300.176 -59.533)"/><path class="p" d="M363.6,183.393l-1.232,5.142a4.3,4.3,0,0,0,2.521,4.956l5.729,2.392,5.729-13.679-7.548-1.977a4.3,4.3,0,0,0-5.2,3.165Z" transform="translate(-302.719 -60.149)"/><path class="j" d="M381.471,412.847l-1.876-.487-48.212-1.06c-1.533,1.647.286,7.076,7.247,7.076s17.646-.258,24.808-.258,9.439.258,16.156.258C381.542,418.376,382.731,415.54,381.471,412.847Z" transform="translate(-316.281 39.799)"/><path class="h" d="M380.1,403.77l1.647,16.959a2.392,2.392,0,0,1-2.378,2.549c-7.405,0-12.1-.243-19.279-.358-8.379-.129-13.636.63-23.476.473-5.944-.086-6.832-5.9-4.3-6.632,11.96-3.581,18.62-6.016,24.707-13.177,0,0-5.973-5.486-2.564-8.494s15.254-3.609,15.956,0a15.555,15.555,0,0,1-.3,6.832S376.839,399.688,380.1,403.77Z" transform="translate(-316.233 31.717)"/><path class="j" d="M347.15,402.792c1.2-1.633,1.619-2.464,3.7-2.607s9.654.659,10.513,2.779a2.865,2.865,0,0,1-2.865,3.667C357.191,406.229,345.875,404.568,347.15,402.792Z" transform="translate(-309.289 34.987)"/><path class="j" d="M342.895,405.529a4.068,4.068,0,0,1,3.853-2.177c1.776.115,8.178,1.719,8.78,3.767s-1.59,3.724-2.664,3.036S342.078,407.148,342.895,405.529Z" transform="translate(-311.106 36.36)"/><path class="j" d="M424.342,412.847l-1.876-.487-43.213-1.06c-1.533,1.647.287,7.076,7.162,7.076s12.662-.258,19.823-.258,9.439.258,16.156.258C424.4,418.376,425.588,415.54,424.342,412.847Z" transform="translate(-295.586 39.799)"/><path class="h" d="M419.7,401.6a4.87,4.87,0,0,1,3.466,4.3l1.432,14.925a2.392,2.392,0,0,1-2.378,2.549c-7.405,0-3.036-.243-10.212-.358-8.379-.129-17.7.63-27.543.473-5.944-.086-6.8-5.8-4.3-6.632,15.612-5.314,19.265-12.261,22.817-13.177,0,0-4.626-6.345-1.217-9.367s13.048-2.449,14.624.874c2.005,4.3-.3,6.832-.3,6.832A4.941,4.941,0,0,1,419.7,401.6Z" transform="translate(-295.543 31.599)"/><path class="j" d="M392.465,402.075c1.16-1.59,1.533-2.392,3.81-2.65s10.714,0,11.888,1.862-1.346,3.925-2.764,3.566S391.247,403.751,392.465,402.075Z" transform="translate(-289.691 34.629)"/><path class="j" d="M389.02,405.128a4.727,4.727,0,0,1,3.724-2.378c2.12,0,10.7.645,11.759,2.578a2.478,2.478,0,0,1-2.578,3.466C400.636,408.365,387.931,406.746,389.02,405.128Z" transform="translate(-291.173 36.103)"/><path class="h" d="M335.329,228.3a8.794,8.794,0,0,1-3.939-1.2c-4.583-2.378-7.3-5.156-7.29-7.434a2.464,2.464,0,0,1,1.432-2.249.4.4,0,0,1,.516.172.387.387,0,0,1-.172.516,1.676,1.676,0,0,0-1.06,1.561c0,1.533,1.79,4.111,6.875,6.746,2.592,1.346,4.4,1.5,5.242.444a3.452,3.452,0,0,0,0-3.509.373.373,0,0,1,0-.53.387.387,0,0,1,.544,0,4.154,4.154,0,0,1,0,4.483,2.664,2.664,0,0,1-2.148,1Z" transform="translate(-319.21 -44.037)"/></g></g></svg>