<svg xmlns="http://www.w3.org/2000/svg" width="36.422" height="36.433" viewBox="0 0 36.422 36.433"><defs><style>.a{fill:#fff;}</style></defs><path class="a" d="M87.161,157.805l12.014,3.983,12.014-3.983-12.014-3.982Z" transform="translate(-80.964 -142.877)"/><path class="a" d="M292.216,227.725,278.9,232.14l3.262,5.182,13.32-4.415Z" transform="translate(-259.056 -211.52)"/><path class="a" d="M67.76,333.54l-2.909,4.62-10.363-3.435v7.115l13.272,4.4Z" transform="translate(-50.616 -309.806)"/><path class="a" d="M273.909,338.16,271,333.54v12.7l13.272-4.4v-7.115Z" transform="translate(-251.721 -309.806)"/><path class="a" d="M13.395,237.322l3.262-5.182-13.32-4.415L.075,232.907Z" transform="translate(-0.075 -211.52)"/><path class="a" d="M241,0h2.135V7.128H241Z" transform="translate(-223.856)"/><path class="a" d="M0,0H2.135V7.128H0Z" transform="matrix(0.866, -0.5, 0.5, 0.866, 7.105, 3.262)"/><path class="a" d="M0,0H7.128V2.135H0Z" transform="matrix(0.5, -0.866, 0.866, 0.5, 23.904, 8.368)"/></svg>