<?xml version="1.0" encoding="iso-8859-1"?>
<!-- Generator: Adobe Illustrator 17.1.0, SVG Export Plug-In . SVG Version: 6.00 Build 0)  -->
<!DOCTYPE svg PUBLIC "-//W3C//DTD SVG 1.1//EN" "http://www.w3.org/Graphics/SVG/1.1/DTD/svg11.dtd">
<svg version="1.1" id="Capa_1" xmlns="http://www.w3.org/2000/svg" xmlns:xlink="http://www.w3.org/1999/xlink" x="0px" y="0px"
	 viewBox="0 0 297.666 297.666" style="enable-background:new 0 0 297.666 297.666;" xml:space="preserve">
<g>
	<path d="M276.783,119.911c1.685-1.725,2.427-4.017,2.246-6.245h0.09C270.389,49.563,215.295,0,148.834,0
		C82.575,0,27.615,49.26,18.629,113.079c-0.014,0.099-0.032,0.197-0.042,0.296c-0.013,0.098-0.027,0.194-0.04,0.291h0.023
		c-0.141,2.188,0.606,4.423,2.26,6.112l90.027,91.888H90.333c-13.808,0-25.333,11.193-25.333,25v36c0,13.807,11.525,25,25.333,25
		h116c13.808,0,24.667-11.193,24.667-25v-36c0-13.807-10.859-25-24.667-25h-19.258L276.783,119.911z M165.945,210.39l31.14-104.235
		c6.882-9.863,18.306-16.321,31.245-16.321c15.137,0,28.207,8.829,34.349,21.616L165.945,210.39z M116.982,107.045
		c6.806-10.363,18.525-17.212,31.852-17.212c13.073,0,24.605,6.59,31.462,16.626l-31.384,105.052L116.982,107.045z M34.576,110.945
		c6.241-12.513,19.158-21.112,34.094-21.112c13.01,0,24.49,6.527,31.359,16.481l31.734,103.827L34.576,110.945z M173,246.666v16h-17
		v17h-16v-17h-17v-16h17v-17h16v17H173z"/>
</g>
<g>
</g>
<g>
</g>
<g>
</g>
<g>
</g>
<g>
</g>
<g>
</g>
<g>
</g>
<g>
</g>
<g>
</g>
<g>
</g>
<g>
</g>
<g>
</g>
<g>
</g>
<g>
</g>
<g>
</g>
</svg>
