<svg xmlns="http://www.w3.org/2000/svg" width="31.824" height="36.354" viewBox="0 0 31.824 36.354"><defs><style>.a{fill:#fff;}</style></defs><path class="a" d="M50.085,14.645a.975.975,0,0,0,.274-.763h.011a16.06,16.06,0,0,0-31.814-.072c0,.012,0,.024-.005.036l0,.036h0a.973.973,0,0,0,.276.746L29.821,25.851H27.314A3.088,3.088,0,0,0,24.22,28.9v4.4a3.088,3.088,0,0,0,3.094,3.053H41.481A3.019,3.019,0,0,0,44.494,33.3V28.9a3.019,3.019,0,0,0-3.013-3.053H39.129ZM36.549,25.695l3.8-12.73a4.651,4.651,0,0,1,8.011.647Zm-5.98-12.622A4.651,4.651,0,0,1,38.3,13l-3.833,12.83ZM20.5,13.55a4.651,4.651,0,0,1,7.994-.566l3.876,12.68ZM37.41,30.125v1.954H35.334v2.076H33.38V32.079H31.3V30.125H33.38V28.049h1.954v2.076H37.41Z" transform="translate(-18.547 0)"/></svg>