<svg xmlns="http://www.w3.org/2000/svg" width="49" height="49" viewBox="0 0 49 49">
  <g id="request" transform="translate(-930 -430)">
    <rect id="Rectangle_63" data-name="Rectangle 63" width="49" height="49" rx="7" transform="translate(930 430)" fill="#ff7c48"/>
    <g id="supplies" transform="translate(936 433)">
      <path id="Path_390" data-name="Path 390" d="M55.3,17.066a1.136,1.136,0,0,0,.32-.889h.013a18.716,18.716,0,0,0-37.074-.084c0,.014,0,.028-.006.042l-.006.041h0a1.134,1.134,0,0,0,.322.87L31.685,30.125H28.764a3.6,3.6,0,0,0-3.605,3.558v5.124a3.6,3.6,0,0,0,3.605,3.558h16.51a3.518,3.518,0,0,0,3.511-3.558V33.683a3.518,3.518,0,0,0-3.511-3.558H42.533ZM39.525,29.943l4.432-14.835a5.42,5.42,0,0,1,9.336.754ZM32.557,15.235a5.42,5.42,0,0,1,9.011-.083L37.1,30.1Zm-11.728.555a5.42,5.42,0,0,1,9.316-.659L34.66,29.908Zm19.7,19.316v2.277H38.11V39.8H35.833v-2.42H33.413V35.106h2.419v-2.42H38.11v2.42Z" transform="translate(-18.547 0)" fill="#fff"/>
    </g>
  </g>
</svg>
