<svg xmlns="http://www.w3.org/2000/svg" width="608" height="589.317" viewBox="0 0 608 589.317"><defs><style>.a,.d{fill:#e0e0e0;}.b{fill:#ebebeb;}.c{fill:#f5f5f5;}.d{fill-rule:evenodd;}.e{fill:#fafafa;}.f{fill:#ff7c48;}.g{fill:#263238;}.h{opacity:0.6;}.i{fill:#fff;}.j{opacity:0.3;}.k{fill:#b78876;}.l{fill:#995037;}.m{opacity:0.8;}.n{opacity:0.7;}.o{opacity:0.4;}.p{fill:#455a64;}</style></defs><g transform="translate(-5.36 -9.66)"><g transform="translate(17.741 12.246)"><path class="a" d="M97.6,327.939a22.128,22.128,0,0,0-6.352-1.566,19.889,19.889,0,0,0-7.458.82,18.794,18.794,0,0,0-8.192,4.972l-.535.572v-.783a20.8,20.8,0,0,0-8.589-18.074c-4.835-3.468-10.7-5.246-15.824-4.45l-.6.1.286-.535A26.328,26.328,0,0,0,53.5,298.28a23.543,23.543,0,0,0-.982-8.7,28.367,28.367,0,0,0-3.468-7,2.391,2.391,0,0,1,.348.4c.2.286.547.684.92,1.243a22.461,22.461,0,0,1,2.486,5.233,23.481,23.481,0,0,1,1.144,8.863A26.738,26.738,0,0,1,50.8,309.281l-.311-.435c5.333-.858,11.337.957,16.309,4.512A21.269,21.269,0,0,1,75.577,332l-.5-.211a19.105,19.105,0,0,1,8.465-4.972,19.987,19.987,0,0,1,7.6-.7,18.56,18.56,0,0,1,4.786,1.144c.535.2.92.423,1.243.534A1.666,1.666,0,0,1,97.6,327.939Z" transform="translate(-7.122 54.087)"/><path class="a" d="M97,286.521c.075.162-12.729,6.613-28.59,14.419s-28.8,14-28.888,13.835,12.729-6.613,28.59-14.419S96.912,286.359,97,286.521Z" transform="translate(-9.438 55.044)"/><path class="a" d="M90.427,286.52c.162.075-5.047,12.306-11.635,27.347S66.722,341,66.561,340.928s5.047-12.306,11.635-27.347S90.253,286.445,90.427,286.52Z" transform="translate(-2.867 55.045)"/><path class="a" d="M94.974,308.543a17.677,17.677,0,0,0-3.729-1.131,12.43,12.43,0,0,0-4.376,0,11.648,11.648,0,0,0-5.072,2.3l-.472.373v-.609a11.038,11.038,0,0,0-13.052-10.815l-.423.087v-.435a16.085,16.085,0,0,0-.522-6.775A17.1,17.1,0,0,0,65,286.69a22.982,22.982,0,0,0-3.244-3.58,4.688,4.688,0,0,1,1.069.733,15.265,15.265,0,0,1,2.486,2.623,16.532,16.532,0,0,1,2.486,4.972,16.259,16.259,0,0,1,.634,7.011l-.36-.336a11.685,11.685,0,0,1,8.341,1.467,11.324,11.324,0,0,1,4.289,4.525,11.61,11.61,0,0,1,1.243,5.469l-.472-.236a12.133,12.133,0,0,1,5.358-2.312,12.556,12.556,0,0,1,4.512.062,10.917,10.917,0,0,1,2.747.945A4.476,4.476,0,0,1,94.974,308.543Z" transform="translate(-4.033 54.216)"/><path class="a" d="M90.664,293.128c0,.1-.845,0-2.188.211a7.744,7.744,0,0,0-4.562,2.76l-.385.5-.162-.609a7.52,7.52,0,0,0-1.442-2.8,7.881,7.881,0,0,0-2.374-1.977l-.311-.162.2-.286a7.545,7.545,0,0,0,1.243-5.233c-.174-1.38-.584-2.126-.5-2.163a4.176,4.176,0,0,1,.883,2.1,7.62,7.62,0,0,1-1.156,5.656l-.112-.46a8.03,8.03,0,0,1,4.114,5.171l-.535-.112a7.607,7.607,0,0,1,4.972-2.772A4.288,4.288,0,0,1,90.664,293.128Z" transform="translate(0.216 54.279)"/><path class="a" d="M450.8,123.1h-.249l-.721-.249c-.634-.2-1.541-.584-2.772-.957a59.89,59.89,0,0,0-27.844-2.014c-1.628.224-3.282.634-4.972,1.007a38.343,38.343,0,0,0-5.134,1.566,57.568,57.568,0,0,0-10.4,4.86l-.41.249v-.485a48.628,48.628,0,0,0-4.86-18.571A49.722,49.722,0,0,0,380.5,91.988a41.021,41.021,0,0,0-12.431-7.123,47.832,47.832,0,0,0-13.462-2.4c-8.913-.336-17.229,1.057-24.687,2.362l-.435.075.137-.423a90.16,90.16,0,0,0,4.512-29.833,67.359,67.359,0,0,0-.783-8.391c-.137-.957-.3-1.691-.373-2.188s-.112-.758-.112-.758a6.207,6.207,0,0,1,.186.746c.112.485.3,1.243.46,2.175a61.8,61.8,0,0,1,.932,8.4,88.553,88.553,0,0,1-4.326,29.945l-.3-.336c7.458-1.342,15.8-2.772,24.8-2.486A48.913,48.913,0,0,1,368.3,84.169,41.766,41.766,0,0,1,380.89,91.4a50.344,50.344,0,0,1,13.064,16.744,48.89,48.89,0,0,1,4.885,18.82l-.435-.236a58.212,58.212,0,0,1,10.529-4.873c1.74-.634,3.493-1.081,5.184-1.554a37.829,37.829,0,0,1,4.972-.994,59.107,59.107,0,0,1,17.142-.211,56.048,56.048,0,0,1,10.827,2.486c1.243.4,2.138.808,2.76,1.044l.7.286Z" transform="translate(61.039 -4.067)"/><path class="a" d="M436.54,46.4a6.455,6.455,0,0,1-.522.982L434.4,50.129c-1.417,2.387-3.493,5.817-6.091,10.031-5.2,8.428-12.493,20.013-20.6,32.767s-15.4,24.264-20.747,32.667l-6.215,9.944-1.715,2.685a6.722,6.722,0,0,1-.646.907,8.275,8.275,0,0,1,.534-.97l1.616-2.76c1.417-2.374,3.493-5.805,6.091-10.019,5.2-8.428,12.43-20.013,20.585-32.767l20.747-32.667L434.178,50l1.715-2.685a8.942,8.942,0,0,1,.646-.92Z" transform="translate(72.924 -3.316)"/><path class="a" d="M450.811,45.63a1.243,1.243,0,0,1-.323.137l-.982.348-3.729,1.243-13.91,4.537L385.986,66.812c-17.925,5.842-34.171,11.076-45.993,14.78l-13.984,4.363-3.816,1.131-.994.273a1.243,1.243,0,0,1-.348.075l.323-.137.982-.336,3.729-1.243,13.91-4.525,45.893-14.917C403.6,60.435,419.846,55.2,431.68,51.5l13.972-4.326,3.816-1.131.994-.286A1.243,1.243,0,0,1,450.811,45.63Z" transform="translate(58.939 -3.503)"/><path class="a" d="M443.131,101.338s-.982-.261-2.834-.609a43.3,43.3,0,0,0-8.067-.733,62.438,62.438,0,0,0-12.43,1.243,56.845,56.845,0,0,0-15.078,5.171l-.534.273.1-.584c1.467-8.316-2.635-18.037-10.094-24.55a34.806,34.806,0,0,0-8.154-5.308,39.416,39.416,0,0,0-8.8-3.008,53.09,53.09,0,0,0-16.856-.435l-.572.075.311-.485a21.38,21.38,0,0,0,3.021-12.157,31.909,31.909,0,0,0-1.964-9.609,39.213,39.213,0,0,0-2.648-5.743c-.348-.634-.659-1.106-.845-1.429a4.966,4.966,0,0,1-.273-.51,3.144,3.144,0,0,1,.348.46c.2.311.534.771.92,1.392a38.007,38.007,0,0,1,2.847,5.681,31.385,31.385,0,0,1,2.1,9.683,21.666,21.666,0,0,1-3,12.43l-.261-.41a53.09,53.09,0,0,1,17.042.36,39.778,39.778,0,0,1,8.962,3.045,35.6,35.6,0,0,1,8.3,5.395,32.418,32.418,0,0,1,8.5,11.859,24.177,24.177,0,0,1,1.69,13.3l-.423-.323a56.907,56.907,0,0,1,15.277-5.109,60.362,60.362,0,0,1,12.505-1.119,39.268,39.268,0,0,1,8.1.9c.932.174,1.628.423,2.1.547a3.305,3.305,0,0,1,.7.311Z" transform="translate(67.825 -4.157)"/><path class="a" d="M434.407,77.426a24.961,24.961,0,0,0-5.992-1.4,20.411,20.411,0,0,0-6.9.609,19.069,19.069,0,0,0-7.782,4.127l-.336.286-.149-.41a29.634,29.634,0,0,0-24.488-18.994h-.423l.2-.373a26.627,26.627,0,0,0,3-13.6,30.869,30.869,0,0,0-.46-3.953,11.808,11.808,0,0,1-.261-1.4,2.082,2.082,0,0,1,.137.348c.075.236.186.559.3,1.019a24.45,24.45,0,0,1,.622,3.965,26.253,26.253,0,0,1-2.834,13.885l-.224-.41a29.833,29.833,0,0,1,25,19.342l-.472-.112a19.292,19.292,0,0,1,8.055-4.164,19.789,19.789,0,0,1,7.061-.485,18.807,18.807,0,0,1,4.475,1.057c.5.186.858.385,1.119.5S434.42,77.414,434.407,77.426Z" transform="translate(75.342 -4.31)"/><path class="a" d="M429.777,58.216a6.538,6.538,0,0,0-2.735-.7,8.925,8.925,0,0,0-6.464,2.735l-.671.709.149-.97a4.748,4.748,0,0,0-.472-2.424,13.885,13.885,0,0,0-1.429-2.4,13.671,13.671,0,0,0-2.324-2.486,4.015,4.015,0,0,0-2.66-1.106l-.92.1.671-.609a12.492,12.492,0,0,0,2.387-2.735,6.813,6.813,0,0,0,.994-2.6,16.5,16.5,0,0,0,0-2.486,2.487,2.487,0,0,1,.211.646,7.086,7.086,0,0,1,.1,1.914,6.848,6.848,0,0,1-.92,2.822,12.752,12.752,0,0,1-2.411,2.909l-.249-.5a4.425,4.425,0,0,1,3.157,1.243,13.276,13.276,0,0,1,2.486,2.61,14.113,14.113,0,0,1,1.467,2.486,5.37,5.37,0,0,1,.485,2.784l-.522-.261a9,9,0,0,1,6.936-2.7,4.972,4.972,0,0,1,2.1.584C429.615,57.98,429.8,58.2,429.777,58.216Z" transform="translate(81.153 -4.082)"/><rect class="b" width="50.169" height="13.276" transform="translate(220.778 33.786)"/><path class="a" d="M226.063,63.5a2.215,2.215,0,0,1,0-.249V59.953c0-2.287,0-5.581-.087-9.733l.149.149-50.169.1c.112-.112-.249.261.261-.249h0V63.471l-.249-.261,35.75.124H222.4l-10.5.062-35.924.124h-.249V50.245h0c.51-.51.137-.149.249-.261l50.169.1h.162v.162c0,4.189-.075,7.458-.087,9.833V63.31A.164.164,0,0,1,226.063,63.5Z" transform="translate(23.665 -2.45)"/><rect class="b" width="95.615" height="123.273" transform="translate(135.53 462.725)"/><rect class="c" width="95.615" height="123.273" transform="translate(104.068 462.725)"/><path class="d" d="M116.515,394.628V389.27H107.49v5.358a4.512,4.512,0,0,0,3.94,4.463v4.661h-2.063c-.7,0-1.243.41-1.243.907h7.707c0-.5-.572-.907-1.243-.907h-2V399.09a4.512,4.512,0,0,0,3.928-4.463Z" transform="translate(7.082 80.018)"/><path class="d" d="M131.139,394.262a6.588,6.588,0,0,0-6.364-4.972h0a6.588,6.588,0,0,0-6.364,4.972h5.706V402.6a1.243,1.243,0,0,1-2.486,0h-1.243a2.486,2.486,0,1,0,4.972,0v-8.391Z" transform="translate(9.736 80.023)"/><path class="a" d="M226.523,431.5c0,.162-28.69.286-64.092.286s-64.092-.124-64.092-.286,28.69-.286,64.092-.286S226.523,431.334,226.523,431.5Z" transform="translate(4.858 90.212)"/><path class="a" d="M137.556,507.807c-.162,0-.286-27.757-.286-61.978s.124-61.978.286-61.978.3,27.745.3,61.978S137.717,507.807,137.556,507.807Z" transform="translate(14.32 78.701)"/><rect class="c" width="101.01" height="77.902" transform="translate(448.554 433.799) rotate(180)"/><path class="b" d="M315.319,375.444c.137,0,.249-17.4.249-38.771s-.112-38.783-.249-38.783-.249,17.4-.249,38.783S315.182,375.444,315.319,375.444Z" transform="translate(57.534 57.808)"/><rect class="e" width="7.744" height="8.751" transform="translate(363.853 424.837) rotate(180)"/><rect class="b" width="11.473" height="16.62" transform="translate(406.266 356.109)"/><rect class="b" width="11.473" height="16.62" transform="translate(406.266 416.956)"/><rect class="b" width="197.52" height="152.348" transform="translate(281.029 434.06)"/><path class="a" d="M360.565,512.282c-.211,0-.385-33.96-.385-75.826s.174-75.826.385-75.826.4,33.96.4,75.826S360.777,512.282,360.565,512.282Z" transform="translate(68.498 73.057)"/><rect class="e" width="15.14" height="17.117" transform="translate(446.665 551.74)"/><rect class="a" width="22.437" height="32.506" transform="translate(341.292 434.458)"/><rect class="a" width="22.437" height="32.506" transform="translate(341.292 553.455)"/><path class="a" d="M340.094,150.4a2.208,2.208,0,0,1,0-.249v-3.294c0-2.3,0-5.594-.087-9.745l.149.162-50.157.1c.112-.124-.261.249.249-.261h0v13.251l-.249-.249,35.75.112,10.553.075h.124l-10.491.075L290,150.482h-.249V137.144h0c.51-.51.137-.137.261-.249l50.157.1h.162v.149c0,4.189-.062,7.52-.087,9.833v3.232A.164.164,0,0,1,340.094,150.4Z" transform="translate(51.38 18.672)"/><path class="a" d="M495.481,52.237a1.848,1.848,0,0,1,0-.236c0-.186,0-.41,0-.684V38.962l.1.162-32.319.1.162-.261h0V52.237l-.162-.249,23.046.112,6.8.075h.05l-6.762.075-23.158.112H463V39.049h0l.162-.249,32.319.1h.1V52.113C495.58,52.287,495.481,52.237,495.481,52.237Z" transform="translate(93.488 -5.163)"/><path class="a" d="M401.714,246.054a.722.722,0,0,1,0-.236v-3.294c0-2.287,0-5.581-.087-9.733l.162.149-50.169.1.249-.249h0v13.263l-.249-.249,35.75.112,10.553.075h.112l-10.491.062-35.924.112h-.249V232.641h0l.261-.261,50.169.1h.075v.162c0,4.189-.062,7.458-.087,9.833v3.22A1.069,1.069,0,0,1,401.714,246.054Z" transform="translate(66.357 41.886)"/><path class="a" d="M92.856,225.647a2.211,2.211,0,0,1,0-.249v-3.282c0-2.3,0-5.594-.087-9.746l.149.162-50.157.1c.112-.112-.261.249.249-.261h0v13.251l-.249-.249,35.75.112,10.553.075h3.6a.834.834,0,0,1,.261,0h-.945l-2.859.087-10.491.075-35.937.112H42.45v-13.45h0c.51-.51.137-.137.261-.249l50.157.1h.162v.149c0,4.189-.062,7.52-.087,9.833v3.232A.4.4,0,0,0,92.856,225.647Z" transform="translate(-8.726 36.959)"/><path class="a" d="M94.417,215v-3.617c0-2.324-.062-5.606-.1-9.659l.186.186-30.144.075.249-.249h0v13.251l-.236-.236,21.554.112H86.1l-21.716.124H64v-13.5h0l.261-.261L94.4,201.3h.174v.174c0,4.09-.075,7.458-.1,9.77v2.623A7.458,7.458,0,0,1,94.417,215Z" transform="translate(-3.488 34.315)"/><path class="a" d="M495.181,336.459a.723.723,0,0,1,0-.236v-3.294c0-2.287,0-5.581-.087-9.733l.162.149-50.169.1.249-.249h0v13.251l-.249-.249,35.75.112,10.553.075h.112l-10.491.075-35.961.236H444.8V323.2h0c.51-.522.149-.149.261-.261l50.169.1h.149v.162c0,4.189-.062,7.458-.087,9.82v3.232A1.062,1.062,0,0,1,495.181,336.459Z" transform="translate(89.065 63.889)"/><path class="a" d="M496.721,325.809a1.332,1.332,0,0,1,0-.261v-3.356c0-2.337,0-5.619-.1-9.659l.186.186-30.144.062c-.224.236.311-.311.261-.249h0v13.251l-.249-.249,21.567.112,6.277.075h.112l-6.215.075-21.729.112h-.249V312.421h0l.261-.261,30.144.075h.124v.186c0,4.09-.075,7.458-.1,9.77v2.61a7.815,7.815,0,0,1-.149,1.007Z" transform="translate(94.324 61.277)"/><rect class="a" width="2.598" height="7.558" transform="translate(118.724 21.53) rotate(-90)"/><rect class="a" width="2.598" height="7.558" transform="translate(58.336 140.738) rotate(180)"/><rect class="a" width="2.598" height="7.558" transform="translate(118.724 108.506) rotate(-90)"/><path class="a" d="M137.81,11.74V21.7c0,6.439.062,15.712.112,27.173s0,25.122,0,40.287v42.811a24.514,24.514,0,0,1-.472,6.563,14.556,14.556,0,0,1-8.366,9.683,15.687,15.687,0,0,1-6.327,1.119H52.45l-27.161-.112H17.906l7.384-.062,27.347-.361,40.287-.075h30.044a15.215,15.215,0,0,0,6.079-1.081,13.86,13.86,0,0,0,7.98-9.248,23.892,23.892,0,0,0,.46-6.4V89.182c0-15.165,0-28.814.075-40.287s.075-20.734.1-27.173v-9.31A1.231,1.231,0,0,1,137.81,11.74Z" transform="translate(-15.32 -11.74)"/><rect class="a" width="2.934" height="8.54" transform="translate(510.16 561.411) rotate(90)"/><rect class="a" width="2.934" height="8.54" transform="translate(578.44 426.627)"/><rect class="a" width="2.934" height="8.54" transform="translate(510.172 463.073) rotate(90)"/><path class="a" d="M422.356,513.412v-2.424c0-1.616,0-3.94-.062-6.936,0-6.041-.062-14.755-.1-25.507,0-21.554-.062-51.3-.1-84.142V376.279a23.621,23.621,0,0,1,.46-5.9,16.16,16.16,0,0,1,6.352-9.435,16.632,16.632,0,0,1,10.479-3.046l37.838.075,25.507.1,6.936.062h-6.936l-25.507.112H439.386a16.073,16.073,0,0,0-10.118,2.946,15.563,15.563,0,0,0-6.1,9.087,23.154,23.154,0,0,0-.435,5.755v18.124c0,32.841-.062,62.587-.087,84.142,0,10.752-.087,19.466-.112,25.507v8.739A2.8,2.8,0,0,1,422.356,513.412Z" transform="translate(83.54 72.387)"/></g><g transform="translate(49.928 552.761)"><path class="f" d="M51.656,446.57a8.7,8.7,0,0,1,5.407,4.127,15.489,15.489,0,0,1,1.927,6.65c.373,4.5-1.243,9.422-3.232,13.475-4.351-2.486-6.315-7.968-7.135-10.8-1.305-4.475-.945-13.363,3.033-13.45" transform="translate(-39.578 -446.57)"/><path class="f" d="M58.949,473.4a7.458,7.458,0,0,1,.982-7.371,9.8,9.8,0,0,1,6.675-3.642,4.189,4.189,0,0,1,3.406.783,3.2,3.2,0,0,1,.671,3.145,6.526,6.526,0,0,1-1.877,2.76c-2.809,2.648-6.016,4.686-9.857,4.326" transform="translate(-37.039 -442.747)"/><path class="g" d="M57.185,486.847a4.861,4.861,0,0,1,0-.92v-2.486a25.917,25.917,0,0,1,.97-8.291,16.048,16.048,0,0,1,4.413-7.06,10.581,10.581,0,0,1,2.088-1.454,5.151,5.151,0,0,1,.622-.3l.224-.087a18.876,18.876,0,0,0-2.772,2.014,16.433,16.433,0,0,0-4.264,6.986,27.8,27.8,0,0,0-1.131,8.092,22.316,22.316,0,0,1-.075,2.486A6.078,6.078,0,0,1,57.185,486.847Z" transform="translate(-37.339 -441.787)"/><path class="g" d="M51.19,452a1.041,1.041,0,0,0,.124.385A8.892,8.892,0,0,1,51.6,453.5c.249.97.584,2.387.994,4.127.808,3.505,1.865,8.353,2.909,13.736s1.877,10.268,2.486,13.823c.273,1.778.485,3.207.622,4.2l.149,1.156a1.915,1.915,0,0,1,0,.4,2.847,2.847,0,0,1-.1-.4,7.8,7.8,0,0,0-.2-1.131c-.186-1.032-.423-2.486-.733-4.189-.609-3.543-1.479-8.415-2.486-13.8s-2.051-10.23-2.809-13.736c-.373-1.728-.671-3.145-.9-4.164-.1-.46-.174-.845-.236-1.131A1.38,1.38,0,0,1,51.19,452Z" transform="translate(-38.789 -445.25)"/><path class="f" d="M57.257,476.518a17.328,17.328,0,0,0-11.747-10.6c-1.355-.348-3.045-.423-3.878.709s-.286,2.722.472,3.9a14.792,14.792,0,0,0,15.14,6.364" transform="translate(-41.214 -441.924)"/><path class="g" d="M45.82,469.12a6.837,6.837,0,0,1,.845.186c.273.075.609.162.982.3a11.531,11.531,0,0,1,1.243.485c.423.211.97.423,1.492.721a16.346,16.346,0,0,1,1.616.97,17.4,17.4,0,0,1,6.576,8.117,15.486,15.486,0,0,1,.535,1.554,12,12,0,0,1,.323,1.33,7.82,7.82,0,0,1,.174,1.007,4.973,4.973,0,0,1,.075.87c-.075,0-.186-1.243-.8-3.132A14.913,14.913,0,0,0,58.313,480a18.335,18.335,0,0,0-.8-1.678,20.224,20.224,0,0,0-2.486-3.481,21.135,21.135,0,0,0-3.207-2.809c-.547-.361-1.069-.709-1.591-.982a16.168,16.168,0,0,0-1.442-.746C47.013,469.48,45.8,469.195,45.82,469.12Z" transform="translate(-40.095 -441.089)"/></g><g transform="translate(133.693 108.628)"><path class="f" d="M154.1,450.4l.6,26.216s-26.4,9.41-26.7,14.308l50.866.646L179.6,450.7Z" transform="translate(-103.885 -1.507)"/><g class="h" transform="translate(64.152 473.057)"><path class="i" d="M162.671,469.89a2.076,2.076,0,0,1,1.4,2.387,1.989,1.989,0,0,1-2.362,1.4,2.188,2.188,0,0,1-1.467-2.486,2.063,2.063,0,0,1,2.61-1.243" transform="translate(-160.209 -469.839)"/></g><g class="h" transform="translate(24.036 485.911)"><path class="i" d="M178.819,484.295l-.087-4.115L130,481.087s-2.287.957-2.051,2.561Z" transform="translate(-127.936 -480.18)"/></g><path class="g" d="M148.85,471.307c0,.249,1.243.373,2.486,1.243s1.852,1.865,2.076,1.765-.124-1.529-1.6-2.486S148.8,471.083,148.85,471.307Z" transform="translate(-98.818 3.528)"/><path class="g" d="M144.54,473.02c0,.236,1.007.671,1.84,1.74s1.057,2.175,1.243,2.163.423-1.4-.634-2.71S144.54,472.771,144.54,473.02Z" transform="translate(-99.865 3.966)"/><path class="g" d="M142.372,478.943c.236,0,.6-1.243,0-2.561s-1.778-1.914-1.889-1.715.609.945,1.094,2.076S142.173,478.906,142.372,478.943Z" transform="translate(-100.854 4.382)"/><path class="g" d="M149.271,466.626c.112.224,1.243-.1,2.648,0s2.486.572,2.635.36-.92-1.106-2.573-1.243S149.16,466.427,149.271,466.626Z" transform="translate(-98.717 2.218)"/><g class="j" transform="translate(50.381 453.455)"><path d="M149.13,454.7l.1,4.661,25,.1.112-5.395Z" transform="translate(-149.13 -454.07)"/></g><path class="g" d="M149.25,462.988a4.9,4.9,0,0,0,2.548,0,11.522,11.522,0,0,0,4.152-1.541,3.356,3.356,0,0,0,.783-.584,1.106,1.106,0,0,0,.124-1.33,1.355,1.355,0,0,0-1.081-.572,3.221,3.221,0,0,0-.957.112,10.367,10.367,0,0,0-1.591.522,9.222,9.222,0,0,0-2.362,1.516c-1.243,1.081-1.616,2-1.529,2.051s.7-.684,1.914-1.579a9.782,9.782,0,0,1,2.287-1.243,9.68,9.68,0,0,1,1.467-.435c.535-.137.994-.137,1.131.112s0,.124,0,.286a2.61,2.61,0,0,1-.572.423,13.211,13.211,0,0,1-3.829,1.666,16.291,16.291,0,0,0-2.486.6Z" transform="translate(-98.72 0.573)"/><path class="g" d="M150.155,464.067a4.064,4.064,0,0,0,.709-2.486,8.491,8.491,0,0,0-.311-2.784,8.281,8.281,0,0,0-.634-1.566A2.113,2.113,0,0,0,148.278,456a1.243,1.243,0,0,0-1.081.7,3.505,3.505,0,0,0-.273.932,5.693,5.693,0,0,0,0,1.715,5.929,5.929,0,0,0,1.057,2.648c.982,1.33,2.014,1.641,2.039,1.554a10.567,10.567,0,0,1-1.529-1.889,5.706,5.706,0,0,1-.709-3.878c.087-.535.3-.97.5-.907a1.855,1.855,0,0,1,.883.845,7.524,7.524,0,0,1,.609,1.392,9.449,9.449,0,0,1,.472,2.548C150.3,463.1,150.018,464.018,150.155,464.067Z" transform="translate(-99.302 -0.146)"/><path class="f" d="M225.758,450.584l-.994,26.191s26.3,9.808,26.589,14.668l-50.866-.087-.137-40.9Z" transform="translate(-86.3 -1.492)"/><g class="h" transform="translate(121.262 473.039)"><path class="i" d="M207.629,469.844a2.076,2.076,0,0,0-1.442,2.362,2.014,2.014,0,0,0,2.337,1.454,2.2,2.2,0,0,0,1.517-2.486,2.076,2.076,0,0,0-2.6-1.243" transform="translate(-206.152 -469.825)"/></g><g class="h" transform="translate(114.186 485.737)"><path class="i" d="M200.46,484.167l.149-4.127,48.715,1.628s2.262.982,2,2.586Z" transform="translate(-200.46 -480.04)"/></g><path class="g" d="M221.572,471.477c0,.249-1.243.348-2.486,1.156s-1.877,1.84-2.113,1.74.149-1.541,1.641-2.486S221.622,471.241,221.572,471.477Z" transform="translate(-82.276 3.558)"/><path class="g" d="M225.663,473.231c0,.236-1.019.659-1.865,1.7s-1.094,2.163-1.342,2.15-.41-1.417.671-2.7S225.588,472.97,225.663,473.231Z" transform="translate(-80.972 4.015)"/><path class="g" d="M227.439,479.187c-.236,0-.572-1.243.062-2.548s1.8-1.9,1.914-1.691-.622.932-1.131,2.051S227.675,479.162,227.439,479.187Z" transform="translate(-79.79 4.449)"/><path class="g" d="M221.346,466.769c-.112.224-1.243-.112-2.648,0s-2.486.535-2.635.323.92-1.094,2.586-1.181S221.458,466.583,221.346,466.769Z" transform="translate(-82.485 2.261)"/><g class="j" transform="translate(114.05 453.281)"><path d="M225.559,454.924l-.174,4.674-25-.273-.037-5.395Z" transform="translate(-200.35 -453.93)"/></g><path class="g" d="M221.907,463.164a4.862,4.862,0,0,1-2.486,0,10.881,10.881,0,0,1-4.214-1.678,3.081,3.081,0,0,1-.771-.6,1.069,1.069,0,0,1-.112-1.318,1.368,1.368,0,0,1,1.094-.572,3.169,3.169,0,0,1,.957.137,8.7,8.7,0,0,1,1.579.547,9.5,9.5,0,0,1,2.349,1.541c1.168,1.094,1.579,2.026,1.492,2.076s-.684-.7-1.889-1.6a9.842,9.842,0,0,0-2.262-1.243,10.116,10.116,0,0,0-1.467-.46c-.534-.137-.994-.149-1.131.1s0,.124,0,.286a2.612,2.612,0,0,0,.572.435,12.352,12.352,0,0,0,1.342.771,12.949,12.949,0,0,0,2.486.945A16.926,16.926,0,0,1,221.907,463.164Z" transform="translate(-82.947 0.583)"/><path class="g" d="M220.263,464.2a4.015,4.015,0,0,1-.671-2.486,8.042,8.042,0,0,1,1.007-4.326,2.1,2.1,0,0,1,1.628-1.243,1.243,1.243,0,0,1,1.057.721,3.208,3.208,0,0,1,.261.932,6.1,6.1,0,0,1,0,1.715,5.843,5.843,0,0,1-1.094,2.623c-.994,1.318-2.039,1.616-2.051,1.529a10.033,10.033,0,0,0,1.541-1.865,5.88,5.88,0,0,0,.808-2.4,5.306,5.306,0,0,0,0-1.467c-.087-.534-.286-.982-.485-.92a1.887,1.887,0,0,0-.9.833,8.514,8.514,0,0,0-.634,1.38,9.1,9.1,0,0,0-.5,2.486C220.1,463.235,220.388,464.168,220.263,464.2Z" transform="translate(-81.626 -0.11)"/><path class="g" d="M215.317,247.78,247.91,523.911,216.8,525.365,178.672,298.583l1.616,225.576-31.375-1.939L133.4,260.347Z" transform="translate(-102.573 -50.754)"/><path class="g" d="M149.736,132.845a89.089,89.089,0,0,1-4.077-14.917,31.362,31.362,0,0,1,1.032-15.29c.273-.733,2.486-5.681,3.306-5.619.559,0-.82,4.661-.522,5.134a26.614,26.614,0,0,1,3.17,15.439,69.35,69.35,0,0,1-2.909,15.24" transform="translate(-99.716 -87.396)"/><path class="k" d="M163.449,177.416A14.693,14.693,0,0,1,148.868,162.9l-.622-48.143c-.584-12.928,6.464-24.041,19.4-24.264h1.243A23.133,23.133,0,0,1,191.057,112.7c.435,11.187.783,23.618.46,29.585-.671,12.43-13.151,13.81-13.151,13.81v6.526a14.718,14.718,0,0,1-14.842,14.743Z" transform="translate(-98.972 -88.983)"/><path class="l" d="M175.551,144.372a30.032,30.032,0,0,1-15.961-5.432s3.568,9.174,16,8.577Z" transform="translate(-96.207 -77.207)"/><path class="g" d="M180.563,116.808a1.778,1.778,0,0,1-1.778,1.715,1.7,1.7,0,0,1-1.765-1.666,1.778,1.778,0,0,1,1.778-1.728,1.7,1.7,0,0,1,1.765,1.678Z" transform="translate(-91.971 -82.994)"/><path class="g" d="M182.117,114.893c-.236.224-1.529-.833-3.443-.907s-3.344.833-3.543.584.149-.51.771-.932a4.786,4.786,0,0,1,2.847-.746,4.649,4.649,0,0,1,2.735,1.007C182.042,114.371,182.229,114.793,182.117,114.893Z" transform="translate(-92.444 -83.54)"/><path class="g" d="M167.6,116.1c-.224.224-1.529-.82-3.443-.9s-3.344.82-3.53.572.137-.51.771-.932a4.972,4.972,0,0,1,2.847-.746,4.649,4.649,0,0,1,2.722,1.007C167.529,115.58,167.716,116,167.6,116.1Z" transform="translate(-95.967 -83.245)"/><path class="g" d="M170.339,127.566a13.325,13.325,0,0,1,3.12-.423c.485,0,.957-.112,1.057-.435a2.586,2.586,0,0,0-.273-1.467c-.41-1.243-.833-2.486-1.243-3.729-1.79-5.358-3.058-9.758-2.834-9.833s1.84,4.226,3.617,9.584l1.243,3.729a2.76,2.76,0,0,1,.174,1.914,1.243,1.243,0,0,1-.82.684,3.493,3.493,0,0,1-.833.075,12.269,12.269,0,0,1-3.207-.1Z" transform="translate(-93.643 -83.833)"/><path class="g" d="M173.407,130.57c-.273.137-1.106-1.765-3.307-2.4s-4.152.435-4.276.186.286-.572,1.131-.97a5.246,5.246,0,0,1,3.518-.261,4.45,4.45,0,0,1,2.66,2.076C173.506,129.961,173.506,130.52,173.407,130.57Z" transform="translate(-94.697 -80.124)"/><path class="g" d="M168.316,113.6c-.273.485-2.113-.1-4.363-.224s-4.139.162-4.351-.348c-.087-.249.3-.671,1.106-1.032a7.608,7.608,0,0,1,6.638.435C168.1,112.907,168.44,113.38,168.316,113.6Z" transform="translate(-96.207 -83.892)"/><path class="g" d="M181.668,109.933c-.373.435-1.914,0-3.729,0s-3.394.36-3.729-.087c-.162-.211.075-.646.746-1.081a6.215,6.215,0,0,1,6.066,0C181.618,109.249,181.842,109.709,181.668,109.933Z" transform="translate(-92.666 -84.733)"/><path class="k" d="M150.413,117.53c-.211-.1-8.428-2.871-8.5,5.631s8.465,6.812,8.478,6.576S150.413,117.53,150.413,117.53Z" transform="translate(-100.504 -82.535)"/><path class="l" d="M147.409,125.959a3.014,3.014,0,0,1-.4.211,1.454,1.454,0,0,1-1.106,0,3.642,3.642,0,0,1-1.666-3.294,4.761,4.761,0,0,1,.435-2.113,1.7,1.7,0,0,1,1.119-1.131.758.758,0,0,1,.87.41c.112.236.062.41.1.423s.186-.137.124-.485a.945.945,0,0,0-.336-.535,1.044,1.044,0,0,0-.808-.224,2.088,2.088,0,0,0-1.566,1.243,5.2,5.2,0,0,0-.535,2.362,3.841,3.841,0,0,0,2.126,3.729,1.579,1.579,0,0,0,1.355-.211C147.384,126.158,147.433,125.972,147.409,125.959Z" transform="translate(-100.086 -82.002)"/><path class="g" d="M186.2,98.964c1.367-.758-2.747-5.208-6.128-6.737-5.109-2.325-12.9-3.729-17.614-2.486-5.668,1.6-10.379,4.425-13.226,9.584a33.413,33.413,0,0,0-3.729,17.055,10.155,10.155,0,0,0,1.243,5.184c1.181,1.877,3.456,3.07,3.356,5.656a3.592,3.592,0,0,0,.883,2.6c1.554,1.653,3.456.1,4.326-1.454,1.877-3.331,2.088-7.3,2.25-11.113a24.774,24.774,0,0,0-.535-8.08c-.41-1.417-1.081-2.747-1.417-4.189a5.1,5.1,0,0,1,.609-4.239,4.375,4.375,0,0,1,.684-.7,8.85,8.85,0,0,1,8.788-1.666c4.786,1.691,12.953,4.226,15.091,2.6a13.127,13.127,0,0,0,3.8-3.853Z" transform="translate(-99.642 -89.277)"/><path class="f" d="M223.319,302.866l-5.233-46.95-3.928-72.258-2.387-32.717-6.29.957-4.5-1.181-9.136,1.8-4.773-7.334-2.362-.447c0,5.979-.895,11.486-3.953,15.464L156.095,141.73l-2.61.671-4.226,9.422s-25.806,14.643-27.2,16.731l13.6,41.878,1.131,46.291-2.076,46.192Z" transform="translate(-105.329 -76.529)"/><path class="g" d="M139.135,176.616c-.1,0-.51-1.106-1.5-2.772a21.318,21.318,0,0,0-4.91-5.631,21.007,21.007,0,0,0-6.6-3.518c-1.84-.6-3.045-.733-3.021-.858a2.485,2.485,0,0,1,.858,0,14.433,14.433,0,0,1,2.3.41,18.845,18.845,0,0,1,6.862,3.468,18.559,18.559,0,0,1,4.91,5.9,12.43,12.43,0,0,1,.92,2.15C139.135,176.305,139.222,176.591,139.135,176.616Z" transform="translate(-105.076 -71.165)"/><path class="g" d="M190.177,157.765a8.987,8.987,0,0,1-.709-3.306,9.236,9.236,0,0,1-.075-3.369,17.167,17.167,0,0,1,.783,6.675Z" transform="translate(-88.993 -74.254)"/><path class="g" d="M196.54,256.831a2.932,2.932,0,0,1-.622,0l-1.753-.2c-1.517-.174-3.729-.522-6.4-1.019a133.7,133.7,0,0,1-40.138-14.531c-2.4-1.33-4.3-2.486-5.581-3.319-.584-.385-1.081-.7-1.479-.97s-.5-.348-.485-.373a2.673,2.673,0,0,1,.559.273l1.529.858c1.33.771,3.257,1.852,5.668,3.132a150.272,150.272,0,0,0,40.014,14.482c2.672.547,4.848.957,6.352,1.243l1.74.311a2.225,2.225,0,0,1,.6.112Z" transform="translate(-100.949 -53.515)"/><path class="k" d="M242.164,153.253l-22.039-35.365-7.458-12.07a27.658,27.658,0,0,0-3.481-4.972c-3.319-3.6-5.668-1.007-5.668-1.007a2.238,2.238,0,0,0-2.213-1.367,3.729,3.729,0,0,0-3.045,1.554,5.146,5.146,0,0,0-3.406-1.156,2.6,2.6,0,0,0-1.579.51c-.82-.721-2.324-1.753-3.729-1.243-1.131.41-7.98,5.619-9.671,8.241-.833,1.243.709,2.983,2.8,2.2a18.184,18.184,0,0,0,2.486-1.019,6.676,6.676,0,0,0,1.691-1.367s-1.728,3.033,0,3.555a3.94,3.94,0,0,0,3.244-.783c.659-.559,1.417-1.243,2.138-1.976a.447.447,0,0,0-.087.124c-.957,1.4,1.529,3.493,2.735,2.648a16.652,16.652,0,0,0,1.616-1.243c2.8,2.026-1.094,4.624-2.735,4.487a51.563,51.563,0,0,0-7.583,0,5.432,5.432,0,0,0-3.468,1.243c-.92.945,0,2.958,1.355,3.157a87.542,87.542,0,0,1,8.7,1.728c3.729.97,13.674,4.177,13.674,4.177l.957.783,13.4,32.68-22.934,4.86-5.121,29.063,41.406-11.187C243.395,174.547,247.82,162.129,242.164,153.253Z" transform="translate(-91.333 -87.157)"/><path class="l" d="M205.8,120.576a2.348,2.348,0,0,1-.522-.124l-1.492-.423-5.445-1.616-3.729-1.144c-1.355-.41-2.8-.845-4.338-1.243a39.77,39.77,0,0,0-4.848-1.007,8.428,8.428,0,0,1-2.635-.472,1.84,1.84,0,0,1-.584-.447.8.8,0,0,1-.2-.348l-.062-.36a3.294,3.294,0,0,1,.1-1.43,1.939,1.939,0,0,1,.945-1.106,6.861,6.861,0,0,1,1.243-.51,8.912,8.912,0,0,1,2.66-.323c1.753,0,3.394.261,4.972.2a16.594,16.594,0,0,0,2.275-.224c.733-.137,1.442-.323,2.126-.5a11.275,11.275,0,0,1,3.916-.5,10.565,10.565,0,0,1,3.157.8,21.5,21.5,0,0,1,2.2,1.081c.6.336,1.032.609,1.33.8a2.648,2.648,0,0,1,.448.3,3.181,3.181,0,0,1-.472-.236L205.478,111a20.258,20.258,0,0,0-2.213-1.019,10.467,10.467,0,0,0-3.108-.733,10.89,10.89,0,0,0-3.816.522c-.684.186-1.392.385-2.138.522a14.16,14.16,0,0,1-2.325.249c-1.6.075-3.282-.162-4.972-.186a8.44,8.44,0,0,0-2.548.323c-.82.261-1.765.559-2.014,1.392a3.108,3.108,0,0,0-.075,1.243v.311a.572.572,0,0,0,.124.224,1.417,1.417,0,0,0,.485.36,8.7,8.7,0,0,0,2.486.448,39.779,39.779,0,0,1,4.885,1.032c1.541.4,2.983.833,4.326,1.243l3.729,1.181,5.42,1.728,1.467.485a3.443,3.443,0,0,1,.609.249Z" transform="translate(-90.782 -84.487)"/><path class="l" d="M189.422,98.13c0,.062-1.044.684-2.635,1.889a28.931,28.931,0,0,0-2.635,2.275c-.932.92-1.927,1.989-3.1,3a3.282,3.282,0,0,0-1.243,1.653,1.181,1.181,0,0,0,.82,1.442,3.406,3.406,0,0,0,1.765,0,8.08,8.08,0,0,0,1.541-.447,11.064,11.064,0,0,0,2.735-1.653,3.121,3.121,0,0,1-.609.634,8.242,8.242,0,0,1-2.026,1.243,8.427,8.427,0,0,1-1.579.5,3.8,3.8,0,0,1-1.939,0,1.591,1.591,0,0,1-.87-.671,1.616,1.616,0,0,1-.174-1.144,3.505,3.505,0,0,1,1.355-1.852c1.144-.994,2.138-2.051,3.1-2.958a22.873,22.873,0,0,1,2.722-2.25,14.509,14.509,0,0,1,1.989-1.243A4.9,4.9,0,0,1,189.422,98.13Z" transform="translate(-91.383 -87.126)"/><path class="l" d="M196.6,100.764a7.743,7.743,0,0,1-.783.932L193.6,104.12l-3.306,3.642a8.018,8.018,0,0,1-2.337,1.778,3.53,3.53,0,0,1-1.541.385,2.113,2.113,0,0,1-1.541-.622,1.417,1.417,0,0,1-.373-.833,2.486,2.486,0,0,1,.1-.87,4.86,4.86,0,0,1,.709-1.467h0l3.282-3.53c1.007-1.081,1.976-1.952,2.76-2.7a5.768,5.768,0,0,1,1.156-.92,2.847,2.847,0,0,1,1.094-.236c.584,0,.932,0,.907.075a2.772,2.772,0,0,0-.907,0,3.058,3.058,0,0,0-1.019.236,5.868,5.868,0,0,0-1.081.932c-.771.771-1.715,1.653-2.7,2.735s-2.076,2.287-3.257,3.568h0a4.972,4.972,0,0,0-.646,1.367,2.125,2.125,0,0,0-.087.733,1.106,1.106,0,0,0,.286.634,1.753,1.753,0,0,0,1.243.51,3.083,3.083,0,0,0,1.392-.348,8,8,0,0,0,2.238-1.678l3.369-3.53,2.287-2.362.634-.622a1.119,1.119,0,0,1,.336-.236Z" transform="translate(-90.154 -86.975)"/><path class="l" d="M202.993,103.083a.54.54,0,0,1-.261.4,1.454,1.454,0,0,1-1.119.273,1.479,1.479,0,0,1-.957-.634c-.149-.261-.149-.448-.112-.46s.137.124.311.3a1.492,1.492,0,0,0,.82.448,1.628,1.628,0,0,0,.92-.137A.636.636,0,0,1,202.993,103.083Z" transform="translate(-86.258 -86.025)"/><path class="l" d="M203.469,105.992c-.075.062-.572-.447-1.019-1.243a2.9,2.9,0,0,1-.559-1.479,6.934,6.934,0,0,1,.858,1.243,4.848,4.848,0,0,1,.721,1.479Z" transform="translate(-85.926 -85.877)"/><path class="l" d="M204.594,117.118a4.277,4.277,0,0,1-.646-1.392A11.784,11.784,0,0,1,203.4,112a11.548,11.548,0,0,1,.646-3.655,5.234,5.234,0,0,1,.671-1.392,19.1,19.1,0,0,0-.97,5.047A18.111,18.111,0,0,0,204.594,117.118Z" transform="translate(-85.559 -84.982)"/><path class="l" d="M220.476,154.387c-.075,0-.137-.721-.485-1.815a11.586,11.586,0,0,0-.8-1.84,11.038,11.038,0,0,0-3.219-3.667,10.32,10.32,0,0,0-1.728-1.032c-1.044-.485-1.753-.646-1.728-.709s.174,0,.5.062a7.459,7.459,0,0,1,1.33.423,9.474,9.474,0,0,1,1.815.982,10.455,10.455,0,0,1,3.319,3.791,10.092,10.092,0,0,1,.746,1.927,7.7,7.7,0,0,1,.249,1.367,1.852,1.852,0,0,1,0,.51Z" transform="translate(-83.343 -75.661)"/><path class="l" d="M199.855,101.31a2.957,2.957,0,0,1-.348.522c-.249.323-.609.771-1.069,1.318-.92,1.106-2.238,2.586-3.729,4.139a6.825,6.825,0,0,1-2.486,1.9,2.125,2.125,0,0,1-1.417,0,1.765,1.765,0,0,1-.907-.833,2.772,2.772,0,0,1-.261-1.715,1.579,1.579,0,0,1,.162-.609,2.961,2.961,0,0,1,0,.622,2.921,2.921,0,0,0,.336,1.579,1.541,1.541,0,0,0,.8.684,1.864,1.864,0,0,0,1.243,0,7.011,7.011,0,0,0,2.325-1.852c1.541-1.541,2.884-3,3.841-4.052a15.627,15.627,0,0,1,1.517-1.7Z" transform="translate(-88.914 -86.353)"/><path class="l" d="M203.355,101.73a2.984,2.984,0,0,1-.373.485c-.261.3-.634.721-1.106,1.243l-1.678,1.815-.994,1.057a8.973,8.973,0,0,1-1.168,1.081,2.9,2.9,0,0,1-1.5.6,1.566,1.566,0,0,1-1.417-.622,1.156,1.156,0,0,1-.224-.721,1.243,1.243,0,0,1,.211-.659,11.1,11.1,0,0,1,.671-.945c.41-.572.746-1.019.994-1.33a2.251,2.251,0,0,1,.4-.46,4.555,4.555,0,0,1-.3.535c-.211.336-.522.808-.907,1.38-.186.3-.435.609-.622.945a.932.932,0,0,0,0,1.081,1.243,1.243,0,0,0,1.144.472,2.486,2.486,0,0,0,1.342-.547,8.143,8.143,0,0,0,1.131-1.032l1.007-1.044,1.715-1.753,1.181-1.168C203.169,101.854,203.33,101.718,203.355,101.73Z" transform="translate(-87.628 -86.251)"/><path class="f" d="M193.918,150.224l19.255-4.214L210.8,178.963l-19.28,8.018-4.04-5.432-.609-17Z" transform="translate(-89.577 -75.489)"/><path class="f" d="M125.243,163a8.913,8.913,0,0,0-3.928,5.395c-1.168,3.978-10.765,37.291-10.765,37.291l16.16-.41,12.841-15.6-9.8-26.328Z" transform="translate(-108.126 -71.359)"/><path class="f" d="M191.01,252.533l212.151,37.018L390.408,135.4l-199.4,88.729Z" transform="translate(-88.571 -78.067)"/><g class="m" transform="translate(102.439 57.333)"><path class="i" d="M191.01,252.533l212.151,37.018L390.408,135.4l-199.4,88.729Z" transform="translate(-191.01 -135.4)"/></g><path class="f" d="M311.908,193.368a2.983,2.983,0,1,1-2.008-1.1,2.983,2.983,0,0,1,2.008,1.1Z" transform="translate(-60.476 -64.249)"/><g class="h" transform="translate(246.124 128.006)"><path class="i" d="M311.908,193.368a2.983,2.983,0,1,1-2.008-1.1,2.983,2.983,0,0,1,2.008,1.1Z" transform="translate(-306.6 -192.255)"/></g><path class="f" d="M253.429,200.958a1.492,1.492,0,1,1-2.1-.224,1.492,1.492,0,0,1,2.1.224Z" transform="translate(-74.045 -62.268)"/><g class="h" transform="translate(176.731 138.139)"><path class="i" d="M253.429,200.958a1.492,1.492,0,1,1-2.1-.224,1.492,1.492,0,0,1,2.1.224Z" transform="translate(-250.775 -200.407)"/></g><path class="f" d="M282.378,215.108a1.492,1.492,0,1,1-2.088-.224,1.492,1.492,0,0,1,2.088.224Z" transform="translate(-67.007 -58.828)"/><g class="h" transform="translate(212.722 155.729)"><path class="i" d="M282.378,215.108a1.492,1.492,0,1,1-2.088-.224,1.492,1.492,0,0,1,2.088.224Z" transform="translate(-279.729 -214.557)"/></g><circle class="f" cx="1.492" cy="1.492" r="1.492" transform="translate(239.585 108.882)"/><g class="h" transform="translate(239.585 108.882)"><circle class="i" cx="1.492" cy="1.492" r="1.492"/></g><path class="f" d="M199.875,210.53a1.467,1.467,0,1,1-1-.552,1.479,1.479,0,0,1,1,.552Z" transform="translate(-87.056 -59.943)"/><g class="h" transform="translate(110.185 150.026)"><path class="i" d="M199.875,210.53a1.467,1.467,0,1,1-1-.552,1.479,1.479,0,0,1,1,.552Z" transform="translate(-197.241 -209.969)"/></g><ellipse class="f" cx="23.755" cy="77.467" rx="23.755" ry="77.467" transform="translate(280.201 58.818) rotate(-4.41)"/><g class="n" transform="translate(280.201 55.165)"><ellipse class="i" cx="23.755" cy="77.467" rx="23.755" ry="77.467" transform="translate(0 3.653) rotate(-4.41)"/></g><g class="j" transform="translate(30.641 97.491)"><path d="M203.321,171.676a7.993,7.993,0,0,0-4.114-2.772c-7.607-2.71-16.272-.547-23.083,3.729s-12.157,10.578-17.4,16.731c-8.6,10.143-16.868,18.236-25.47,28.379l.186,7.682c6.215.112,12.306-3.344,16.918-7.458s8.08-9.286,11.411-14.482,6.576-10.491,10.852-14.917a9.945,9.945,0,0,1,5.643-3.468c2.3-.286,4.512.845,6.75,1.479a16.247,16.247,0,0,0,17.515-6.588C204.154,177.556,205.036,174.137,203.321,171.676Z" transform="translate(-133.25 -167.706)"/></g><g class="j" transform="translate(77.462 142.041)"><path d="M182.469,206.273c-2.9-.348-5.656,1.7-7.048,4.264a22.25,22.25,0,0,0-2.014,8.453q-1.119,10.79-2.213,21.592a18.049,18.049,0,0,0,.373,7.956,17.676,17.676,0,0,0,2.909,4.724,16.731,16.731,0,0,0,4.015,4.139,14.383,14.383,0,0,0,6.986,1.79,48.935,48.935,0,0,0,10.268-.522,8.7,8.7,0,0,0,4.972-2,8.813,8.813,0,0,0,1.989-4.6c2.486-12.344.684-25.11-1.131-37.59-.385-2.648-.82-5.432-2.486-7.533-2.138-2.71-5.917-3.729-9.348-3.307a31.076,31.076,0,0,0-9.733,3.369" transform="translate(-170.917 -203.546)"/></g><path class="k" d="M112.7,194.528l-2.735,7.309c-.808,3.07-2.026,9.721-.932,12.7.87,2.374,2.387,4.649,4.972,4.972,5.805.82,20.374-11.436,20.374-11.436l-3.406-15.327Z" transform="translate(-108.6 -64.129)"/><path class="k" d="M174.919,161.53s-50,32.555-52.208,34.184a27.819,27.819,0,0,0-9.025,8.838c-4.065,5.867-6.439,19.69.087,22.586a29.6,29.6,0,0,0,9.037.771c7.023-1.243,22.064-9.36,29.087-17.875s31.673-34.582,31.673-34.582Z" transform="translate(-108.33 -71.717)"/><path class="k" d="M161.59,162.521s7.011-2.983,9.36-3.12c1.9-.1,15.575,2.1,20.349,2.175a2.784,2.784,0,0,1,2.486,1.616c1.243,2.7,3.63,7.918,4.052,8.875.6,1.318-.41,4.027-1.641,5.693a2.064,2.064,0,0,1-3.021,1.5l-.535,1.318a3.878,3.878,0,0,1-3.94,2.374l-7.048-.684a2.486,2.486,0,0,1,2.486-2.884l3.978-.41-.062-2.175s-7,.932-9.1.907S165.9,175.66,165.9,175.66Z" transform="translate(-95.721 -72.235)"/><path class="l" d="M187.81,177.686c-.186,0-.435-2.673-1.342-5.855s-2.088-5.594-1.914-5.681a19.491,19.491,0,0,1,3.257,11.536Z" transform="translate(-90.144 -70.594)"/><path class="l" d="M190.29,175.688c-.2,0-.435-2.685-1.342-5.855s-2.088-5.594-1.914-5.693a19.566,19.566,0,0,1,3.257,11.548Z" transform="translate(-89.541 -71.082)"/><path class="l" d="M127.072,186.592c.149.2-5.084,2.871-9.783,8.154s-6.625,10.852-6.849,10.728a3.182,3.182,0,0,1,.261-.982,26.8,26.8,0,0,1,1.057-2.561,32.083,32.083,0,0,1,5.047-7.607,34.1,34.1,0,0,1,6.936-5.942c.994-.622,1.8-1.106,2.4-1.392S127.047,186.542,127.072,186.592Z" transform="translate(-108.153 -65.627)"/><path class="i" d="M194.981,173.163a4.615,4.615,0,0,1-.783.211c-.522.112-1.243.261-2.287.385a30.554,30.554,0,0,1-8.54-.062c-.895-.124-1.827-.286-2.8-.46a14.036,14.036,0,0,0-2.946-.36,3.978,3.978,0,0,0-2.486,1.591c-.721.833-1.454,1.778-2.262,2.635L162.45,188.527c-7.458,8.067-14.482,15.1-19.615,20.15-2.561,2.486-4.674,4.525-6.141,5.892l-1.7,1.566a4.41,4.41,0,0,1-.622.522,6.33,6.33,0,0,1,.535-.609c.373-.385.957-.982,1.616-1.653l5.992-6.054c5.047-5.109,12.008-12.194,19.466-20.249l10.454-11.386c.833-.858,1.517-1.74,2.275-2.623a4.549,4.549,0,0,1,2.909-1.74,5.781,5.781,0,0,1,1.628.124l1.467.286,2.772.5a32.954,32.954,0,0,0,8.44.261c1.007-.087,1.778-.2,2.3-.261a3.854,3.854,0,0,1,.758-.087Z" transform="translate(-102.337 -69.092)"/><path class="i" d="M188.243,175.34c.062,0,0,.671-.7,1.43a5.606,5.606,0,0,1-3.431,1.74,10.318,10.318,0,0,1-3.729-.3c-.932-.236-1.479-.448-1.467-.535a4.426,4.426,0,0,1,1.554.087,14.021,14.021,0,0,0,3.617.1,6.054,6.054,0,0,0,3.195-1.4C187.907,175.85,188.143,175.3,188.243,175.34Z" transform="translate(-91.509 -68.36)"/><path class="i" d="M189.145,173.431c.174,0,.162.5,0,.97s-.46.808-.622.746-.162-.5,0-.97S188.921,173.369,189.145,173.431Z" transform="translate(-89.204 -68.826)"/><path class="i" d="M201.628,257.567a9.089,9.089,0,0,1-1.827,0c-1.168,0-2.859,0-4.972-.186a117.069,117.069,0,0,1-31.946-6.712c-1.964-.721-3.543-1.342-4.612-1.815a8.948,8.948,0,0,1-1.641-.783,11.361,11.361,0,0,1,1.74.547c1.094.41,2.685.957,4.661,1.616a144.789,144.789,0,0,0,15.725,4.276,148.469,148.469,0,0,0,16.16,2.412c2.076.186,3.729.323,4.972.4a9.522,9.522,0,0,1,1.74.249Z" transform="translate(-96.927 -50.683)"/><path class="i" d="M185.919,135.09a2.735,2.735,0,0,1-.162,1.057,7.807,7.807,0,0,1-1.243,2.648,12.43,12.43,0,0,1-8.291,4.724,22.375,22.375,0,0,1-9.559-1.094c-1.168-.36-2.1-.709-2.735-.97a3.729,3.729,0,0,1-.97-.472,38.434,38.434,0,0,1,3.841,1.007,24.637,24.637,0,0,0,9.335.9,12.654,12.654,0,0,0,8.018-4.363A13.276,13.276,0,0,0,185.919,135.09Z" transform="translate(-95.388 -78.143)"/><path class="i" d="M207.01,171.76a23.8,23.8,0,0,1-4.835,2.486,22.052,22.052,0,0,1-5.084,1.84,23.805,23.805,0,0,1,4.835-2.424,22.053,22.053,0,0,1,5.084-1.9Z" transform="translate(-87.093 -69.23)"/><path class="i" d="M231.126,160.22a18.993,18.993,0,0,1-3.244,1.554c-2.039.87-4.9,1.989-8.092,3.12s-6.116,2.014-8.254,2.61a17.775,17.775,0,0,1-3.505.808,22.186,22.186,0,0,1,3.369-1.243l8.179-2.8,8.142-2.921a19.78,19.78,0,0,1,3.406-1.131Z" transform="translate(-84.434 -72.035)"/><path class="e" d="M178.918,209.045s-7.583,11.361-2.337,22.648a12.58,12.58,0,0,0,6.215,6.128l.174.075H194a12.716,12.716,0,0,0,6.514-8.527c1.169-5.469,1.628-13.674-3.48-20.075l-.472-1.6Z" transform="translate(-92.527 -60.497)"/><path class="g" d="M178.939,209.111l1.168-.112,3.481-.336c3.033-.3,7.458-.758,13.015-1.243h.211v.2l.485,1.6v-.087a20.746,20.746,0,0,1,4.326,12.294,31.526,31.526,0,0,1-.622,7.458,12.9,12.9,0,0,1-3.592,6.986,13.587,13.587,0,0,1-1.517,1.243c-.273.2-.547.385-.833.559l-.423.261-.211.112-.112.062H183a13.151,13.151,0,0,1-5.407-4.363,12.045,12.045,0,0,1-1.517-2.909c-.174-.5-.41-.982-.547-1.479s-.261-.994-.385-1.479a22.723,22.723,0,0,1,.211-10.367,30.08,30.08,0,0,1,2.412-6.377c.373-.7.684-1.243.9-1.579a2.932,2.932,0,0,1,.373-.51,3.855,3.855,0,0,1-.273.559c-.2.373-.472.907-.808,1.628a31.561,31.561,0,0,0-2.225,6.364,22.6,22.6,0,0,0-.075,10.168c.124.472.261.945.4,1.43s.36.945.535,1.43a11.189,11.189,0,0,0,1.479,2.784,12.579,12.579,0,0,0,5.2,4.139h10.852l.2-.112.41-.249c.261-.162.522-.348.783-.534a12.431,12.431,0,0,0,4.873-7.893A31.684,31.684,0,0,0,201,221.5a20.261,20.261,0,0,0-4.114-12h0c-.162-.559-.323-1.119-.46-1.616l.261.186c-5.345.4-9.721.659-12.816.858Z" transform="translate(-92.547 -60.563)"/><path class="f" d="M197.886,221.718c-.087-3.108-.783-6.414-3.021-8.589a11.523,11.523,0,0,0-5.805-2.71,10.715,10.715,0,0,0-6.315.273c-2.834,1.243-4.55,4.164-5.382,7.135a15.115,15.115,0,0,0,.6,10.578,9.944,9.944,0,0,0,8.5,5.768l2.486-.2a7.757,7.757,0,0,0,7.123-3.953,15.165,15.165,0,0,0,1.815-8.3Z" transform="translate(-92.053 -59.919)"/><g class="m" transform="translate(84.627 150.15)"><path class="i" d="M197.886,221.718c-.087-3.108-.783-6.414-3.021-8.589a11.523,11.523,0,0,0-5.805-2.71,10.715,10.715,0,0,0-6.315.273c-2.834,1.243-4.55,4.164-5.382,7.135a15.115,15.115,0,0,0,.6,10.578,9.944,9.944,0,0,0,8.5,5.768l2.486-.2a7.757,7.757,0,0,0,7.123-3.953,15.165,15.165,0,0,0,1.815-8.3Z" transform="translate(-176.681 -210.069)"/></g><path class="f" d="M197.886,221.718c-.087-3.108-.783-6.414-3.021-8.589a11.523,11.523,0,0,0-5.805-2.71,10.715,10.715,0,0,0-6.315.273c-2.834,1.243-4.55,4.164-5.382,7.135a15.115,15.115,0,0,0,.6,10.578,9.944,9.944,0,0,0,8.5,5.768l2.486-.2a7.757,7.757,0,0,0,7.123-3.953,15.165,15.165,0,0,0,1.815-8.3Z" transform="translate(-92.053 -59.919)"/><g class="n" transform="translate(84.627 150.15)"><path class="i" d="M197.886,221.718c-.087-3.108-.783-6.414-3.021-8.589a11.523,11.523,0,0,0-5.805-2.71,10.715,10.715,0,0,0-6.315.273c-2.834,1.243-4.55,4.164-5.382,7.135a15.115,15.115,0,0,0,.6,10.578,9.944,9.944,0,0,0,8.5,5.768l2.486-.2a7.757,7.757,0,0,0,7.123-3.953,15.165,15.165,0,0,0,1.815-8.3Z" transform="translate(-176.681 -210.069)"/></g><path class="f" d="M184.57,228.69Z" transform="translate(-90.136 -55.393)"/><path class="f" d="M192.366,222.656a10.827,10.827,0,0,0-3.282-7,3.853,3.853,0,0,0-1.454-.994,1.691,1.691,0,0,0-1.678.249,2.126,2.126,0,0,0-.423,2.088,13.163,13.163,0,0,1,.559,2.163,5.3,5.3,0,0,1-2.138,3.891,7.968,7.968,0,0,0-2.735,3.6,4.114,4.114,0,0,0,1.057,3.642,5.382,5.382,0,0,0,3.108,1.827,7.21,7.21,0,0,0,4.388-2.237A9.571,9.571,0,0,0,192.366,222.656Z" transform="translate(-90.97 -58.832)"/><g class="o" transform="translate(90.166 155.712)"><path class="i" d="M184.57,228.69Z" transform="translate(-180.302 -211.105)"/><path class="i" d="M192.366,222.656a10.827,10.827,0,0,0-3.282-7,3.853,3.853,0,0,0-1.454-.994,1.691,1.691,0,0,0-1.678.249,2.126,2.126,0,0,0-.423,2.088,13.163,13.163,0,0,1,.559,2.163,5.3,5.3,0,0,1-2.138,3.891,7.968,7.968,0,0,0-2.735,3.6,4.114,4.114,0,0,0,1.057,3.642,5.382,5.382,0,0,0,3.108,1.827,7.21,7.21,0,0,0,4.388-2.237A9.571,9.571,0,0,0,192.366,222.656Z" transform="translate(-181.136 -214.544)"/></g><path class="f" d="M185.436,230.487a3.928,3.928,0,0,1-2.2-3.033,2.983,2.983,0,0,1,.348-1.852,9.322,9.322,0,0,1,1.914-1.778A4.736,4.736,0,0,0,186.94,221a1.666,1.666,0,0,1,.124-.547.435.435,0,0,1,.435-.286c.2,0,.336.211.435.385a8.167,8.167,0,0,1,.994,2.486,5.221,5.221,0,0,1-.149,2.7c-.634,1.8-2.349,3-3.282,4.661" transform="translate(-90.467 -57.464)"/><path class="f" d="M183.487,212.54c0,.087-.82.584-1.939,1.7a11.71,11.71,0,0,0-3.07,5.221,11.884,11.884,0,0,0,0,6.054c.41,1.529.92,2.387.82,2.486a5.693,5.693,0,0,1-1.243-2.312,11.051,11.051,0,0,1-.224-6.364,10.914,10.914,0,0,1,3.394-5.382A5.432,5.432,0,0,1,183.487,212.54Z" transform="translate(-91.862 -59.319)"/><path class="f" d="M184.413,211.511c.062.174-.137.4-.447.522s-.622.087-.684-.087.137-.4.448-.522S184.339,211.349,184.413,211.511Z" transform="translate(-90.451 -59.607)"/><path class="g" d="M188.874,250.681c-3.108,0-6.4-.062-9.31-.236a9.484,9.484,0,0,1-7.073-3.083,8.515,8.515,0,0,1-1.815-5.979c0-.82,1.753-24.538,2.486-34.532.261-3.729,1.479-6.439,3.63-8.043a8.7,8.7,0,0,1,6.489-1.367l11.511-.149c7.67-.273,10.143,4.388,10.367,6.911.2,1.591,3.99,31.984,3.294,37.938-.783,6.625-7.384,8.217-7.657,8.279h-.211C200.446,250.445,195.027,250.681,188.874,250.681ZM181.627,199.6a5.88,5.88,0,0,0-3.543,1.081c-1.566,1.168-2.486,3.294-2.685,6.315-.684,10.131-2.412,34.321-2.424,34.557h0a6.34,6.34,0,0,0,1.318,4.289,7.359,7.359,0,0,0,5.42,2.238c8.08.485,19.342,0,20.61,0,.721-.186,5.233-1.579,5.793-6.215.671-5.693-3.257-37.093-3.307-37.4h0a5.121,5.121,0,0,0-1.168-2.486c-1.38-1.641-3.729-2.412-6.837-2.3l-11.809.137h-.137a5.519,5.519,0,0,0-1.231-.211Z" transform="translate(-93.52 -63.027)"/><path class="p" d="M176.31,192.758h23.879l-9.087-4.612a6.986,6.986,0,0,0-3.12-.746h0a6.885,6.885,0,0,0-3.281.832Z" transform="translate(-92.143 -65.429)"/><rect class="p" width="15.948" height="19.876" transform="translate(88.132 126.372)"/><rect class="p" width="20.635" height="3.207" rx="1.17" transform="translate(85.522 145.514)"/><path class="g" d="M174.189,208.819a6.95,6.95,0,0,1,0-1.591c0-1.144.062-2.586.1-4.3.112-3.63.323-8.639.584-14.183.075-1.392.1-2.722.236-4.052a13.177,13.177,0,0,1,.97-3.729,12.94,12.94,0,0,1,3.928-5.109,12.293,12.293,0,0,1,3.829-2.051,8.349,8.349,0,0,1,1.144-.286c.261,0,.41-.075.41,0a11.984,11.984,0,0,1-1.467.572,13.562,13.562,0,0,0-3.63,2.163,12.9,12.9,0,0,0-3.729,4.972,13.09,13.09,0,0,0-.9,3.555c-.112,1.243-.137,2.648-.211,4.027-.261,5.532-.535,10.541-.771,14.171-.124,1.715-.224,3.145-.311,4.289a7.223,7.223,0,0,1-.186,1.554Z" transform="translate(-92.67 -68.811)"/><path class="g" d="M189.49,174a1.082,1.082,0,0,1,.373.1,6.339,6.339,0,0,1,1.019.46,12.12,12.12,0,0,1,3.294,2.486,13.127,13.127,0,0,1,3.058,5.283,15.177,15.177,0,0,1,.547,3.58c.087,1.243.174,2.486.261,3.816.348,5.233.634,9.944.808,13.4,0,1.616.124,2.971.162,4.065a6.477,6.477,0,0,1,0,1.5,7.059,7.059,0,0,1-.224-1.479c-.1-1.094-.224-2.486-.373-4.052-.286-3.431-.646-8.167-.994-13.4-.087-1.305-.162-2.586-.249-3.816a14.482,14.482,0,0,0-.5-3.456,13.052,13.052,0,0,0-2.822-5.134A17.95,17.95,0,0,0,189.49,174Z" transform="translate(-88.94 -68.686)"/><path class="p" d="M176.52,229s3.008,3.381,5.482,4.139h11.71a11.61,11.61,0,0,0,5.706-3.729Z" transform="translate(-92.092 -55.318)"/><path class="p" d="M184.066,234.34h7.67a8.316,8.316,0,0,1,8.316,8.279v.87h-24.3v-.87a8.316,8.316,0,0,1,8.316-8.279Z" transform="translate(-92.279 -54.02)"/><rect class="p" width="12.493" height="6.538" transform="translate(89.276 175.708)"/><rect class="p" width="35.352" height="3.244" rx="1.18" transform="translate(77.728 188.872)"/><path class="g" d="M196.527,206.424a64.076,64.076,0,0,1-9.025.323,63.823,63.823,0,0,1-9.012-.323,60.532,60.532,0,0,1,9.012-.336A60.769,60.769,0,0,1,196.527,206.424Z" transform="translate(-91.614 -60.897)"/><path class="g" d="M199.869,191.841a102.614,102.614,0,0,1-11.734.336,102.436,102.436,0,0,1-11.734-.336,108.024,108.024,0,0,1,11.734-.323A108.213,108.213,0,0,1,199.869,191.841Z" transform="translate(-92.121 -64.438)"/><path class="g" d="M193.02,232.221a30.631,30.631,0,0,1-6.215.323,30.629,30.629,0,0,1-6.215-.323,30.627,30.627,0,0,1,6.215-.323,30.631,30.631,0,0,1,6.215.323Z" transform="translate(-91.103 -54.623)"/><path class="g" d="M192.35,234.481a28.59,28.59,0,0,1-6.016.323,28.49,28.49,0,0,1-6-.323,28.49,28.49,0,0,1,6-.323,28.593,28.593,0,0,1,6.016.323Z" transform="translate(-91.166 -54.074)"/><path class="g" d="M202.5,241.423c0,.186-6.016.323-13.425.323s-13.437-.137-13.437-.323,6.016-.323,13.437-.323S202.5,241.249,202.5,241.423Z" transform="translate(-92.306 -52.377)"/><path class="i" d="M187.7,236.051c0,.174-1.032.36-2.337.4s-2.349-.075-2.349-.249,1.032-.36,2.337-.4S187.7,235.815,187.7,236.051Z" transform="translate(-90.515 -53.667)"/><path class="i" d="M188.4,207.99c0,.174-.945.348-2.113.4s-2.113-.075-2.113-.261.932-.348,2.1-.385S188.384,207.8,188.4,207.99Z" transform="translate(-90.233 -60.487)"/><path class="i" d="M189.609,190.979a21.132,21.132,0,0,1-7.359.472,11.186,11.186,0,0,1,3.667-.559A11.064,11.064,0,0,1,189.609,190.979Z" transform="translate(-90.7 -64.608)"/><path class="i" d="M172.627,223.374a22.438,22.438,0,0,1-.062-5.271,22.189,22.189,0,0,1,.584-5.233,20.9,20.9,0,0,1,.062,5.271A20.858,20.858,0,0,1,172.627,223.374Z" transform="translate(-93.084 -59.238)"/><path class="i" d="M199.882,223.668a38.534,38.534,0,0,1-1.541-7.931,38.234,38.234,0,0,1-.472-8.067,73.344,73.344,0,0,1,1.119,7.98A74.059,74.059,0,0,1,199.882,223.668Z" transform="translate(-86.914 -60.502)"/><path class="i" d="M194.728,230.449l-.895,15.464-.721-15.464-13.462-.721,13.437-.709.808-15.24.646,15.252,17.266.758Z" transform="translate(-91.332 -59.017)"/><path class="i" d="M190.783,227.506,187.29,221.9l4.351,5.009Z" transform="translate(-89.475 -57.044)"/><path class="i" d="M191.1,227l4.686-4.6-3.94,5.358Z" transform="translate(-88.549 -56.922)"/><path class="i" d="M191.95,227l3.481,5.606L191.08,227.6Z" transform="translate(-88.553 -55.804)"/><path class="i" d="M191.684,227.456l-4.674,4.6,3.928-5.345Z" transform="translate(-89.543 -55.875)"/><path class="i" d="M207.257,118.6a23.283,23.283,0,0,1-3.381-.994c-2.076-.671-4.972-1.529-8.167-2.337s-6.215-1.367-8.3-1.753a24.711,24.711,0,0,1-3.456-.7,16.246,16.246,0,0,1,3.53.236,74.4,74.4,0,0,1,8.391,1.591,73.125,73.125,0,0,1,8.154,2.486,16.16,16.16,0,0,1,3.232,1.467Z" transform="translate(-90.286 -83.558)"/></g><g transform="translate(5.36 9.66)"><path class="p" d="M466.172,158.54a3.123,3.123,0,0,1-.1-.9c0-.609,0-1.492-.1-2.635,0-2.337-.1-5.743-.174-10.118-.075-8.813-.186-21.53-.311-37.291,0-7.856-.075-16.47-.124-25.706V57.318l-.137-.845a8.029,8.029,0,0,0-1.429-3.145,7.931,7.931,0,0,0-6.054-3.232H397.954c-47.994,0-91.426-.112-122.875-.286h-2.909a23.418,23.418,0,0,1-2.921-.137,13.673,13.673,0,0,1-5.345-1.939,13.3,13.3,0,0,1-5.892-8.3,18.026,18.026,0,0,1-.336-4.612V30.63c0-2.673.062-5.109.087-7.309.075-4.388.137-7.794.174-10.131,0-1.144.075-2.014.1-2.635a3.231,3.231,0,0,1,.1-.895,3.23,3.23,0,0,1,.1.895c0,.622,0,1.492.1,2.635,0,2.337.1,5.743.174,10.131,0,2.2.062,4.637.087,7.309v4.189a17.226,17.226,0,0,0,.385,4.363,12.157,12.157,0,0,0,5.494,7.458,12,12,0,0,0,4.86,1.691c1.715.186,3.729,0,5.656.087,31.449-.174,74.881-.286,122.875-.286h59.766a9.8,9.8,0,0,1,7.458,3.978,9.945,9.945,0,0,1,1.728,3.853l.149,1.044V81.744c0,9.236-.087,17.85-.124,25.706-.124,15.712-.236,28.429-.3,37.291-.087,4.376-.149,7.781-.186,10.118,0,1.144-.075,2.026-.1,2.635A3.118,3.118,0,0,1,466.172,158.54Z" transform="translate(55.958 -9.66)"/><rect class="g" width="71.177" height="91.414" transform="translate(495.019 134.125)"/><rect class="p" width="71.177" height="91.414" transform="translate(483.658 134.125)"/><path class="g" d="M454.963,198.61a1.866,1.866,0,0,1,0-.373V193.1c0-3.568,0-8.7-.075-15.29,0-13.114-.087-31.673-.149-53.6l.3.286H401.711l.323-.323c0,27.844,0,53.6-.062,74.4l-.261-.261,38.721.137h10.877l-10.715.075-38.883.137h-.261V124.213l.323-.323H455.4v.3c-.062,22.014-.112,40.635-.149,53.787,0,6.514-.062,11.672-.075,15.227v5.047A.4.4,0,0,1,454.963,198.61Z" transform="translate(90.909 18.103)"/><path class="i" d="M426.075,139.34s-15.861,25.681-15.464,25.445,29.945,0,29.945,0Z" transform="translate(93.134 21.859)"/><path class="p" d="M421.909,148.03H425.4l-1.852,4.537h3.083l-4.773,7.806.733-5.159H419.97Z" transform="translate(95.411 23.971)"/><circle class="g" cx="2.076" cy="2.076" r="2.076" transform="translate(495.019 179.471)"/><rect class="p" width="2.374" height="6.911" transform="translate(344.436 36.571)"/><rect class="p" width="2.374" height="6.911" transform="translate(470.345 36.571)"/><rect class="p" width="2.374" height="6.911" transform="translate(518.687 80.326) rotate(-90)"/><rect class="p" width="2.374" height="6.911" transform="translate(57.044 336.046)"/><rect class="p" width="2.374" height="6.911" transform="translate(99.904 384.475) rotate(-90)"/><rect class="p" width="2.374" height="6.911" transform="translate(99.904 484.23) rotate(-90)"/><path class="p" d="M5.36,282.938a3.281,3.281,0,0,1,.907-.1l2.635-.1,10.156-.186,37.291-.3,25.768-.124H100.3a10.292,10.292,0,0,1,3.916,1.243,10.417,10.417,0,0,1,4.972,6.476,15.4,15.4,0,0,1,.348,4.127v63.868c0,48.106-.1,91.65-.286,123.174-.124,15.749-.224,28.491-.3,37.292-.087,4.388-.149,7.806-.186,10.143,0,1.144-.075,2.026-.1,2.635a2.76,2.76,0,0,1-.1.907,4.04,4.04,0,0,1-.1-.907c0-.609,0-1.492-.1-2.635,0-2.337-.1-5.755-.174-10.143-.075-8.838-.186-21.579-.311-37.292-.174-31.524-.286-75.068-.286-123.174V293.976a13.984,13.984,0,0,0-.273-3.729,8.7,8.7,0,0,0-4.152-5.395,8.342,8.342,0,0,0-3.244-1.032c-1.081-.1-2.486,0-3.63,0H81.932L56.163,283.7l-37.291-.311-10.156-.174-2.635-.1a3.282,3.282,0,0,1-.721-.174Z" transform="translate(-5.36 56.564)"/></g><g transform="translate(319.603 497.234)"><rect class="f" width="141.074" height="101.42"/><path class="g" d="M290.642,401.9c.2,0,0,21.418,0,21.418H280.2V401.9Z" transform="translate(-252.803 -401.9)"/><g class="o" transform="translate(70.543 0.012)"><rect width="70.531" height="101.42" transform="translate(70.531 101.42) rotate(180)"/></g><rect class="e" width="18.882" height="13.363" transform="translate(4.301 81.569)"/><rect class="e" width="9.447" height="13.363" transform="translate(26.676 81.569)"/></g><g transform="translate(30.917 598.331)"><path class="g" d="M583,483.553c0,.186-124.715.323-278.53.323S25.92,483.74,25.92,483.553s124.69-.323,278.555-.323S583,483.379,583,483.553Z" transform="translate(-25.92 -483.23)"/></g></g></svg>